<?xml version="1.0" encoding="UTF-8" standalone="no"?>
<!-- Created with Inkscape (http://www.inkscape.org/) -->

<svg
   width="400"
   height="400"
   viewBox="0 0 105.83333 105.83333"
   version="1.1"
   id="svg1"
   inkscape:version="1.3.2 (091e20e, 2023-11-25)"
   xml:space="preserve"
   sodipodi:docname="pyfileconverter_icon.svg"
   xmlns:inkscape="http://www.inkscape.org/namespaces/inkscape"
   xmlns:sodipodi="http://sodipodi.sourceforge.net/DTD/sodipodi-0.dtd"
   xmlns="http://www.w3.org/2000/svg"
   xmlns:svg="http://www.w3.org/2000/svg"><sodipodi:namedview
     id="namedview1"
     pagecolor="#505050"
     bordercolor="#ffffff"
     borderopacity="1"
     inkscape:showpageshadow="0"
     inkscape:pageopacity="0"
     inkscape:pagecheckerboard="1"
     inkscape:deskcolor="#a25050"
     inkscape:document-units="px"
     inkscape:zoom="1.270373"
     inkscape:cx="151.13671"
     inkscape:cy="201.12203"
     inkscape:window-width="1440"
     inkscape:window-height="900"
     inkscape:window-x="0"
     inkscape:window-y="0"
     inkscape:window-maximized="0"
     inkscape:current-layer="g3" /><defs
     id="defs1"><inkscape:path-effect
       effect="fillet_chamfer"
       id="path-effect1"
       is_visible="true"
       lpeversion="1"
       nodesatellites_param="F,0,0,1,0,18,0,1 @ F,0,0,1,0,18,0,1 @ F,0,0,1,0,18,0,1 @ F,0,0,1,0,18,0,1"
       radius="18"
       unit="px"
       method="auto"
       mode="F"
       chamfer_steps="1"
       flexible="false"
       use_knot_distance="true"
       apply_no_radius="true"
       apply_with_radius="true"
       only_selected="false"
       hide_knots="false" /></defs><g
     inkscape:label="Layer 1"
     inkscape:groupmode="layer"
     id="layer1"><path
       style="fill:#000000;fill-opacity:1;stroke-width:0.289454;stroke-linecap:round;stroke-linejoin:round;stroke-miterlimit:2.1"
       id="rect1"
       width="65.627823"
       height="89.62249"
       x="15.254891"
       y="9.0575924"
       sodipodi:type="rect"
       inkscape:label="WhiteReectangle"
       d="m 33.254891,9.0575924 h 29.627823 a 18,18 45 0 1 18,17.9999996 v 53.62249 a 18,18 135 0 1 -18,18 H 33.254891 a 18,18 45 0 1 -18,-18 v -53.62249 a 18,18 135 0 1 18,-17.9999996 z"
       inkscape:path-effect="#path-effect1"
       transform="matrix(1.612629,0,0,1.1808792,-24.60048,-10.695922)" /><g
       id="g3"
       inkscape:label="PythonIcon"
       transform="matrix(2.5907739,0,0,2.669003,-74.630767,-85.319902)"><path
         style="fill:#2c4db6;fill-opacity:1;stroke-width:0.289454;stroke-linecap:round;stroke-linejoin:round;stroke-miterlimit:2.1"
         d="m 42.575654,36.923551 11.885263,0.211294 2.271406,1.954463 0.105645,9.402564 -2.95811,3.275052 -10.14209,0.05282 -2.165761,2.218584 -0.05282,5.335161 -4.331517,-0.05282 -3.222229,-3.222225 -0.05282,-8.39892 3.380698,-3.327874 4.331518,0.05282 -0.15847,-5.28234 z"
         id="path1"
         inkscape:label="BlueSnakePath" /><path
         style="fill:#dfbd00;fill-opacity:1;stroke-width:0.29179;stroke-linecap:round;stroke-linejoin:round;stroke-miterlimit:2.1"
         d="m 56.82036,44.266002 h 5.743688 l 1.932456,3.169404 0.05368,7.500922 -1.019907,2.958108 -0.966229,1.267761 h -5.475291 v 4.278696 l -1.127267,2.112936 -2.36189,1.10929 -8.696051,-0.05282 -2.415568,-1.056468 -1.127267,-2.218584 0.10736,-9.561033 2.308211,-2.271406 10.038032,0.05282 3.006043,-3.275049 z"
         id="path2" /><ellipse
         style="fill:#000000;fill-opacity:1;stroke-width:0.28947632;stroke-linecap:round;stroke-linejoin:round;stroke-miterlimit:2.1;stroke-dasharray:none"
         id="path3"
         cx="44.904484"
         cy="39.45491"
         rx="1.0899146"
         ry="1.0027214" /><ellipse
         style="fill:#000000;fill-opacity:1;stroke-width:0.28947632;stroke-linecap:round;stroke-linejoin:round;stroke-miterlimit:2.1;stroke-dasharray:none"
         id="path3-8"
         cx="52.724255"
         cy="63.041714"
         rx="1.0899146"
         ry="1.0027214" /><rect
         style="fill:#000000;fill-opacity:1;stroke-width:0.201098;stroke-linecap:round;stroke-linejoin:round;stroke-miterlimit:2.1"
         id="rect3"
         width="7.8926802"
         height="0.66300792"
         x="41.591141"
         y="43.761917" /><rect
         style="fill:#000000;fill-opacity:1;stroke-width:0.21722;stroke-linecap:round;stroke-linejoin:round;stroke-miterlimit:2.1"
         id="rect3-5"
         width="8.1508627"
         height="0.74906868"
         x="48.975124"
         y="59.160557" /></g><rect
       style="fill:#fdffff;fill-opacity:1;stroke-width:0.289454;stroke-linecap:round;stroke-linejoin:round;stroke-miterlimit:2.1"
       id="rect4"
       width="14.370779"
       height="18.952765"
       x="24.992659"
       y="43.26207" /><rect
       style="fill:#ffffff;fill-opacity:1;stroke-width:0.289454;stroke-linecap:round;stroke-linejoin:round;stroke-miterlimit:2.1"
       id="rect4-3"
       width="14.370779"
       height="18.952765"
       x="66.435005"
       y="43.053799" /><path
       sodipodi:type="star"
       style="fill:#ffffff;fill-opacity:1;stroke-width:0.289454;stroke-linecap:round;stroke-linejoin:round;stroke-miterlimit:2.1"
       id="path4"
       inkscape:flatsided="false"
       sodipodi:sides="3"
       sodipodi:cx="50.193588"
       sodipodi:cy="39.77998"
       sodipodi:r1="7.0011668"
       sodipodi:r2="3.5005829"
       sodipodi:arg1="0.53021577"
       sodipodi:arg2="1.5774133"
       inkscape:rounded="0"
       inkscape:randomized="0"
       d="m 56.233481,43.320606 -6.063056,-0.04012 -6.063056,-0.04012 3.066273,-5.2307 3.066273,-5.230701 2.996782,5.27082 z"
       inkscape:transform-center-x="-1.7370348"
       inkscape:transform-center-y="-0.020214631"
       transform="matrix(0,0.87277222,-1.0039551,0,91.394535,8.1109478)" /></g></svg>
