<svg version="1.1" viewBox="0.0 0.0 755.2939632545932 717.6482939632546" fill="none" stroke="none" stroke-linecap="square" stroke-miterlimit="10" xmlns:xlink="http://www.w3.org/1999/xlink" xmlns="http://www.w3.org/2000/svg"><clipPath id="p.0"><path d="m0 0l755.29395 0l0 717.6483l-755.29395 0l0 -717.6483z" clip-rule="nonzero"/></clipPath><g clip-path="url(#p.0)"><path fill="#000000" fill-opacity="0.0" d="m0 0l755.29395 0l0 717.6483l-755.29395 0z" fill-rule="evenodd"/><path fill="#efefef" d="m-37.060368 -10.068241l829.4173 0l0 734.77167l-829.4173 0z" fill-rule="evenodd"/><path fill="#d9d2e9" d="m114.85958 230.70091l0 0c0 -3.2471008 2.632286 -5.8793945 5.8793793 -5.8793945l58.25698 0c1.5593109 0 3.0547638 0.61943054 4.1573486 1.7220306c1.1026001 1.1026001 1.7220459 2.598053 1.7220459 4.157364l0 23.516815c0 3.2470856 -2.6322937 5.8793793 -5.8793945 5.8793793l-58.25698 0c-3.2470932 0 -5.8793793 -2.6322937 -5.8793793 -5.8793793z" fill-rule="evenodd"/><path stroke="#000000" stroke-width="2.0" stroke-linejoin="round" stroke-linecap="butt" d="m114.85958 230.70091l0 0c0 -3.2471008 2.632286 -5.8793945 5.8793793 -5.8793945l58.25698 0c1.5593109 0 3.0547638 0.61943054 4.1573486 1.7220306c1.1026001 1.1026001 1.7220459 2.598053 1.7220459 4.157364l0 23.516815c0 3.2470856 -2.6322937 5.8793793 -5.8793945 5.8793793l-58.25698 0c-3.2470932 0 -5.8793793 -2.6322937 -5.8793793 -5.8793793z" fill-rule="evenodd"/><path fill="#000000" d="m132.57057 249.37932l0 -13.359375l4.328125 0q2.453125 0 3.203125 0.203125q1.140625 0.296875 1.921875 1.3125q0.78125 1.0 0.78125 2.59375q0 1.234375 -0.453125 2.078125q-0.453125 0.828125 -1.140625 1.3125q-0.6875 0.46875 -1.390625 0.625q-0.96875 0.203125 -2.796875 0.203125l-1.765625 0l0 5.03125l-2.6875 0zm2.6875 -11.09375l0 3.78125l1.484375 0q1.59375 0 2.125 -0.203125q0.546875 -0.203125 0.84375 -0.65625q0.3125 -0.453125 0.3125 -1.03125q0 -0.734375 -0.4375 -1.203125q-0.421875 -0.484375 -1.078125 -0.59375q-0.484375 -0.09375 -1.9375 -0.09375l-1.3125 0zm9.740448 -2.265625l4.9375 0q1.65625 0 2.53125 0.265625q1.1875 0.34375 2.015625 1.234375q0.84375 0.875 1.28125 2.15625q0.4375 1.28125 0.4375 3.15625q0 1.640625 -0.40625 2.84375q-0.5 1.453125 -1.4375 2.359375q-0.703125 0.671875 -1.890625 1.0625q-0.890625 0.28125 -2.390625 0.28125l-5.078125 0l0 -13.359375zm2.703125 2.265625l0 8.84375l2.015625 0q1.125 0 1.625 -0.125q0.65625 -0.171875 1.078125 -0.5625q0.4375 -0.390625 0.703125 -1.28125q0.28125 -0.90625 0.28125 -2.453125q0 -1.546875 -0.28125 -2.375q-0.265625 -0.828125 -0.765625 -1.28125q-0.484375 -0.46875 -1.234375 -0.640625q-0.5625 -0.125 -2.21875 -0.125l-1.203125 0zm10.801071 11.09375l0 -13.359375l9.15625 0l0 2.265625l-6.453125 0l0 3.15625l5.5625 0l0 2.265625l-5.5625 0l0 5.671875l-2.703125 0z" fill-rule="nonzero"/><path fill="#b4a7d6" d="m102.18241 141.2154l0 0c0 -4.667694 3.7839203 -8.451614 8.451614 -8.451614l78.46685 0c2.241516 0 4.39122 0.8904419 5.9761963 2.475418c1.5849915 1.5849915 2.475418 3.7346954 2.475418 5.9761963l0 33.805435c0 4.667694 -3.783905 8.451614 -8.451614 8.451614l-78.46685 0c-4.667694 0 -8.451614 -3.7839203 -8.451614 -8.451614z" fill-rule="evenodd"/><path stroke="#000000" stroke-width="2.0" stroke-linejoin="round" stroke-linecap="butt" d="m102.18241 141.2154l0 0c0 -4.667694 3.7839203 -8.451614 8.451614 -8.451614l78.46685 0c2.241516 0 4.39122 0.8904419 5.9761963 2.475418c1.5849915 1.5849915 2.475418 3.7346954 2.475418 5.9761963l0 33.805435c0 4.667694 -3.783905 8.451614 -8.451614 8.451614l-78.46685 0c-4.667694 0 -8.451614 -3.7839203 -8.451614 -8.451614z" fill-rule="evenodd"/><path fill="#000000" d="m119.00129 165.0381l0 -13.359375l2.6875 0l0 13.359375l-2.6875 0zm5.042679 -9.671875l2.359375 0l0 1.3125q1.265625 -1.53125 3.0156326 -1.53125q0.9375 0 1.609375 0.390625q0.6875 0.375 1.125 1.140625q0.640625 -0.765625 1.375 -1.140625q0.75 -0.390625 1.578125 -0.390625q1.0625 0 1.796875 0.4375q0.75 0.421875 1.109375 1.265625q0.265625 0.625 0.265625 2.0l0 6.1875l-2.5625 0l0 -5.53125q0 -1.4375 -0.265625 -1.859375q-0.34375 -0.546875 -1.09375 -0.546875q-0.53125 0 -1.015625 0.328125q-0.46875 0.328125 -0.671875 0.96875q-0.203125 0.625 -0.203125 2.0l0 4.640625l-2.5625 0l0 -5.296875q0 -1.421875 -0.140625 -1.828125q-0.140625 -0.40625 -0.421875 -0.609375q-0.28125 -0.203125 -0.78125 -0.203125q-0.5937576 0 -1.0625076 0.328125q-0.46875 0.3125 -0.6875 0.921875q-0.203125 0.59375 -0.203125 1.984375l0 4.703125l-2.5625 0l0 -9.671875zm18.697777 2.953125l-2.328125 -0.421875q0.40625 -1.40625 1.359375 -2.078125q0.953125 -0.671875 2.84375 -0.671875q1.703125 0 2.546875 0.40625q0.84375 0.40625 1.171875 1.03125q0.34375 0.625 0.34375 2.28125l-0.015625 3.0q0 1.265625 0.109375 1.875q0.125 0.609375 0.46875 1.296875l-2.53125 0q-0.109375 -0.25 -0.25 -0.75q-0.0625 -0.234375 -0.09375 -0.3125q-0.65625 0.640625 -1.40625 0.96875q-0.734375 0.3125 -1.59375 0.3125q-1.484375 0 -2.34375 -0.8125q-0.859375 -0.8125 -0.859375 -2.046875q0 -0.828125 0.390625 -1.46875q0.390625 -0.640625 1.09375 -0.96875q0.703125 -0.34375 2.03125 -0.609375q1.796875 -0.328125 2.484375 -0.625l0 -0.25q0 -0.75 -0.359375 -1.0625q-0.359375 -0.3125 -1.375 -0.3125q-0.6875 0 -1.078125 0.28125q-0.375 0.265625 -0.609375 0.9375zm3.421875 2.078125q-0.484375 0.15625 -1.5625 0.390625q-1.0625 0.21875 -1.390625 0.4375q-0.5 0.359375 -0.5 0.90625q0 0.53125 0.40625 0.9375q0.40625 0.390625 1.015625 0.390625q0.703125 0 1.328125 -0.46875q0.46875 -0.34375 0.609375 -0.84375q0.09375 -0.328125 0.09375 -1.25l0 -0.5zm4.813217 5.28125l2.921875 0.359375q0.0625 0.5 0.328125 0.6875q0.375 0.28125 1.15625 0.28125q1.0 0 1.5 -0.296875q0.328125 -0.203125 0.515625 -0.65625q0.109375 -0.3125 0.109375 -1.171875l0 -1.40625q-1.140625 1.5625 -2.890625 1.5625q-1.953125 0 -3.09375 -1.65625q-0.890625 -1.296875 -0.890625 -3.234375q0 -2.4375 1.171875 -3.71875q1.171875 -1.28125 2.90625 -1.28125q1.796875 0 2.96875 1.578125l0 -1.359375l2.390625 0l0 8.671875q0 1.71875 -0.28125 2.5625q-0.28125 0.84375 -0.796875 1.328125q-0.5 0.484375 -1.359375 0.75q-0.84375 0.28125 -2.15625 0.28125q-2.453125 0 -3.484375 -0.84375q-1.03125 -0.84375 -1.03125 -2.125q0 -0.140625 0.015625 -0.3125zm2.28125 -5.671875q0 1.53125 0.59375 2.25q0.59375 0.71875 1.46875 0.71875q0.9375 0 1.578125 -0.734375q0.65625 -0.734375 0.65625 -2.171875q0 -1.515625 -0.625 -2.234375q-0.609375 -0.734375 -1.5625 -0.734375q-0.921875 0 -1.515625 0.71875q-0.59375 0.71875 -0.59375 2.1875zm14.942856 1.953125l2.546875 0.421875q-0.484375 1.40625 -1.546875 2.140625q-1.0625 0.734375 -2.65625 0.734375q-2.515625 0 -3.734375 -1.65625q-0.953125 -1.3125 -0.953125 -3.328125q0 -2.40625 1.25 -3.765625q1.265625 -1.359375 3.1875 -1.359375q2.15625 0 3.40625 1.421875q1.25 1.421875 1.1875 4.375l-6.40625 0q0.03125 1.140625 0.609375 1.78125q0.59375 0.625 1.484375 0.625q0.59375 0 1.0 -0.328125q0.421875 -0.328125 0.625 -1.0625zm0.15625 -2.59375q-0.03125 -1.109375 -0.578125 -1.6875q-0.546875 -0.578125 -1.328125 -0.578125q-0.84375 0 -1.390625 0.609375q-0.546875 0.609375 -0.53125 1.65625l3.828125 0zm3.7194672 2.90625l2.5625 -0.390625q0.171875 0.75 0.671875 1.140625q0.5 0.390625 1.40625 0.390625q0.984375 0 1.484375 -0.375q0.34375 -0.25 0.34375 -0.671875q0 -0.296875 -0.1875 -0.484375q-0.1875 -0.1875 -0.859375 -0.34375q-3.09375 -0.6875 -3.921875 -1.25q-1.140625 -0.78125 -1.140625 -2.171875q0 -1.265625 0.984375 -2.109375q1.0 -0.859375 3.078125 -0.859375q1.984375 0 2.953125 0.65625q0.96875 0.640625 1.328125 1.90625l-2.40625 0.4375q-0.15625 -0.5625 -0.59375 -0.859375q-0.421875 -0.296875 -1.234375 -0.296875q-1.0 0 -1.4375 0.28125q-0.296875 0.203125 -0.296875 0.515625q0 0.265625 0.25 0.46875q0.34375 0.25 2.390625 0.71875q2.046875 0.453125 2.859375 1.140625q0.796875 0.671875 0.796875 1.890625q0 1.34375 -1.109375 2.296875q-1.109375 0.953125 -3.28125 0.953125q-1.984375 0 -3.140625 -0.796875q-1.140625 -0.8125 -1.5 -2.1875z" fill-rule="nonzero"/><path fill="#d9d2e9" d="m56.145668 319.4778l0 0c0 -3.2471008 2.63229 -5.8793945 5.879383 -5.8793945l58.256985 0c1.5593109 0 3.0547485 0.6194458 4.1573486 1.7220459c1.1026001 1.1026001 1.7220306 2.5980225 1.7220306 4.1573486l0 23.516815c0 3.2471008 -2.632286 5.8793945 -5.8793793 5.8793945l-58.256985 0c-3.2470932 0 -5.879383 -2.6322937 -5.879383 -5.8793945z" fill-rule="evenodd"/><path stroke="#000000" stroke-width="2.0" stroke-linejoin="round" stroke-linecap="butt" d="m56.145668 319.4778l0 0c0 -3.2471008 2.63229 -5.8793945 5.879383 -5.8793945l58.256985 0c1.5593109 0 3.0547485 0.6194458 4.1573486 1.7220459c1.1026001 1.1026001 1.7220306 2.5980225 1.7220306 4.1573486l0 23.516815c0 3.2471008 -2.632286 5.8793945 -5.8793793 5.8793945l-58.256985 0c-3.2470932 0 -5.879383 -2.6322937 -5.879383 -5.8793945z" fill-rule="evenodd"/><path fill="#000000" d="m78.66006 324.79684l2.6875 0l0 8.453125q0 1.65625 -0.28125 2.5625q-0.390625 1.15625 -1.421875 1.875q-1.03125 0.703125 -2.71875 0.703125q-1.984375 0 -3.046875 -1.109375q-1.0625 -1.109375 -1.078125 -3.25l2.546875 -0.296875q0.046875 1.15625 0.34375 1.625q0.4375 0.71875 1.328125 0.71875q0.890625 0 1.265625 -0.515625q0.375 -0.515625 0.375 -2.140625l0 -8.625zm5.563217 13.359375l0 -13.359375l4.328125 0q2.453125 0 3.203125 0.203125q1.140625 0.296875 1.921875 1.3125q0.78125 1.0 0.78125 2.59375q0 1.234375 -0.453125 2.078125q-0.453125 0.828125 -1.140625 1.3125q-0.6875 0.46875 -1.390625 0.625q-0.96875 0.203125 -2.796875 0.203125l-1.765625 0l0 5.03125l-2.6875 0zm2.6875 -11.09375l0 3.78125l1.484375 0q1.59375 0 2.125 -0.203125q0.546875 -0.203125 0.84375 -0.65625q0.3125 -0.453125 0.3125 -1.03125q0 -0.734375 -0.4375 -1.203125q-0.421875 -0.484375 -1.078125 -0.59375q-0.484375 -0.09375 -1.9375 -0.09375l-1.3125 0zm15.959198 6.1875l0 -2.25l5.8125 0l0 5.3125q-0.84375 0.828125 -2.453125 1.453125q-1.609375 0.625 -3.25 0.625q-2.09375 0 -3.65625 -0.875q-1.5625 -0.890625 -2.34375 -2.515625q-0.78125 -1.640625 -0.78125 -3.5625q0 -2.09375 0.875 -3.703125q0.875 -1.625 2.5625 -2.5q1.28125 -0.65625 3.203125 -0.65625q2.484375 0 3.875 1.046875q1.40625 1.03125 1.796875 2.875l-2.671875 0.5q-0.28125 -0.984375 -1.0625 -1.546875q-0.78125 -0.578125 -1.9375 -0.578125q-1.78125 0 -2.828125 1.125q-1.03125 1.125 -1.03125 3.328125q0 2.375 1.046875 3.5625q1.0625 1.1875 2.78125 1.1875q0.84375 0 1.6875 -0.328125q0.859375 -0.328125 1.46875 -0.8125l0 -1.6875l-3.09375 0z" fill-rule="nonzero"/><path fill="#d9d2e9" d="m173.57349 319.4778l0 0c0 -3.2471008 2.6322937 -5.8793945 5.8793945 -5.8793945l58.256973 0c1.5593109 0 3.0547485 0.6194458 4.1573486 1.7220459c1.1026001 1.1026001 1.7220306 2.5980225 1.7220306 4.1573486l0 23.516815c0 3.2471008 -2.6322784 5.8793945 -5.8793793 5.8793945l-58.256973 0c-3.2471008 0 -5.8793945 -2.6322937 -5.8793945 -5.8793945z" fill-rule="evenodd"/><path stroke="#000000" stroke-width="2.0" stroke-linejoin="round" stroke-linecap="butt" d="m173.57349 319.4778l0 0c0 -3.2471008 2.6322937 -5.8793945 5.8793945 -5.8793945l58.256973 0c1.5593109 0 3.0547485 0.6194458 4.1573486 1.7220459c1.1026001 1.1026001 1.7220306 2.5980225 1.7220306 4.1573486l0 23.516815c0 3.2471008 -2.6322784 5.8793945 -5.8793793 5.8793945l-58.256973 0c-3.2471008 0 -5.8793945 -2.6322937 -5.8793945 -5.8793945z" fill-rule="evenodd"/><path fill="#000000" d="m189.72676 338.15622l0 -13.359375l4.328125 0q2.453125 0 3.203125 0.203125q1.140625 0.296875 1.921875 1.3125q0.78125 1.0 0.78125 2.59375q0 1.234375 -0.453125 2.078125q-0.453125 0.828125 -1.140625 1.3125q-0.6875 0.46875 -1.390625 0.625q-0.96875 0.203125 -2.796875 0.203125l-1.765625 0l0 5.03125l-2.6875 0zm2.6875 -11.09375l0 3.78125l1.484375 0q1.59375 0 2.125 -0.203125q0.546875 -0.203125 0.84375 -0.65625q0.3125 -0.453125 0.3125 -1.03125q0 -0.734375 -0.4375 -1.203125q-0.421875 -0.484375 -1.078125 -0.59375q-0.484375 -0.09375 -1.9375 -0.09375l-1.3125 0zm9.787323 11.09375l0 -13.359375l2.625 0l5.453125 8.921875l0 -8.921875l2.515625 0l0 13.359375l-2.703125 0l-5.390625 -8.703125l0 8.703125l-2.5 0zm19.644821 -4.90625l0 -2.25l5.8125 0l0 5.3125q-0.84375 0.828125 -2.453125 1.453125q-1.609375 0.625 -3.25 0.625q-2.09375 0 -3.65625 -0.875q-1.5625 -0.890625 -2.34375 -2.515625q-0.78125 -1.640625 -0.78125 -3.5625q0 -2.09375 0.875 -3.703125q0.875 -1.625 2.5625 -2.5q1.28125 -0.65625 3.203125 -0.65625q2.484375 0 3.875 1.046875q1.40625 1.03125 1.796875 2.875l-2.671875 0.5q-0.28125 -0.984375 -1.0625 -1.546875q-0.78125 -0.578125 -1.9375 -0.578125q-1.78125 0 -2.828125 1.125q-1.03125 1.125 -1.03125 3.328125q0 2.375 1.046875 3.5625q1.0625 1.1875 2.78125 1.1875q0.84375 0 1.6875 -0.328125q0.859375 -0.328125 1.46875 -0.8125l0 -1.6875l-3.09375 0z" fill-rule="nonzero"/><path fill="#000000" fill-opacity="0.0" d="m91.15354 313.59842c0 -35.5748 11.858269 -71.1496 23.716537 -71.1496" fill-rule="evenodd"/><path stroke="#000000" stroke-width="2.0" stroke-linejoin="round" stroke-linecap="butt" d="m91.58999 301.60635l0.03301239 -0.4574585c0.020446777 -0.2741089 0.041519165 -0.5479431 0.06324005 -0.8215637c0.34740448 -4.37735 0.8569412 -8.685242 1.5054398 -12.8541565c1.2969971 -8.33783 3.1498566 -16.119843 5.3732834 -22.7901c1.1117096 -3.335144 2.316063 -6.3923645 3.5899048 -9.102158c0.6369171 -1.3548889 1.2911987 -2.62294 1.9599686 -3.7954407c0.3343811 -0.5862732 0.67237854 -1.1486206 1.0136414 -1.6860199l0.22198486 -0.34469604" fill-rule="evenodd"/><path fill="#000000" stroke="#000000" stroke-width="2.0" stroke-linecap="butt" d="m88.28871 301.4862l2.9711761 9.190338l3.6313858 -8.950043z" fill-rule="evenodd"/><path fill="#000000" stroke="#000000" stroke-width="2.0" stroke-linecap="butt" d="m107.36171 252.37541l5.1889114 -8.1465l-9.211403 2.9052124z" fill-rule="evenodd"/><path fill="#000000" fill-opacity="0.0" d="m208.58136 313.59842c0 -35.5748 -11.858261 -71.1496 -23.716537 -71.1496" fill-rule="evenodd"/><path stroke="#000000" stroke-width="2.0" stroke-linejoin="round" stroke-linecap="butt" d="m208.14491 301.60635l-0.03302002 -0.4574585c-0.020446777 -0.2741089 -0.041519165 -0.5479431 -0.06321716 -0.8215637c-0.3474121 -4.37735 -0.85694885 -8.685242 -1.5054474 -12.8541565c-1.2969971 -8.33783 -3.1498566 -16.119843 -5.3732758 -22.7901c-1.1117249 -3.335144 -2.3160706 -6.3923645 -3.5899048 -9.102158c-0.6369324 -1.3548889 -1.291214 -2.62294 -1.9599762 -3.7954407c-0.33439636 -0.5862732 -0.67237854 -1.1486206 -1.0136566 -1.6860199l-0.22195435 -0.34469604" fill-rule="evenodd"/><path fill="#000000" stroke="#000000" stroke-width="2.0" stroke-linecap="butt" d="m204.84364 301.7265l3.6313782 8.950043l2.9711761 -9.190338z" fill-rule="evenodd"/><path fill="#000000" stroke="#000000" stroke-width="2.0" stroke-linecap="butt" d="m196.39569 247.13412l-9.211395 -2.9052124l5.188904 8.1465z" fill-rule="evenodd"/><path fill="#000000" fill-opacity="0.0" d="m208.58136 348.87402c0 12.5 -29.354324 24.992126 -58.708664 25.0c-29.354324 0.007873535 -58.708656 -12.468506 -58.708656 -24.937012" fill-rule="evenodd"/><path stroke="#000000" stroke-width="2.0" stroke-linejoin="round" stroke-linecap="butt" d="m202.31172 359.1059l-0.04322815 0.03555298c-0.4434204 0.35964966 -0.90745544 0.71588135 -1.3911896 1.0682678c-0.96751404 0.70477295 -2.0138245 1.3943176 -3.1318207 2.0655518c-2.235962 1.3424377 -4.758606 2.6116638 -7.5105743 3.7832947c-11.007874 4.6865234 -25.685043 7.8115234 -40.362213 7.81546c-14.677155 0.0039367676 -29.354324 -3.1131897 -40.362198 -7.789856c-2.7519684 -1.1691895 -5.274605 -2.4358215 -7.510582 -3.7755127c-1.1179886 -0.66986084 -2.1643066 -1.3580017 -3.1317978 -2.0613708c-0.4837494 -0.35165405 -0.9477844 -0.7071228 -1.3912048 -1.0660095l-0.027122498 -0.022277832" fill-rule="evenodd"/><path fill="#000000" stroke="#000000" stroke-width="2.0" stroke-linecap="butt" d="m205.12845 360.83188l1.9253082 -9.464874l-7.5587616 6.0129395z" fill-rule="evenodd"/><path fill="#000000" stroke="#000000" stroke-width="2.0" stroke-linecap="butt" d="m100.2638 357.42862l-7.5682297 -6.001007l1.9402237 9.461792z" fill-rule="evenodd"/><path fill="#b4a7d6" d="m349.98294 142.85582l0 0c0 -4.6677094 3.783905 -8.451614 8.451599 -8.451614l53.11255 0c2.2414856 0 4.391205 0.89042664 5.976166 2.475418c1.5849915 1.5849762 2.4754333 3.7346802 2.4754333 5.9761963l0 33.805435c0 4.667694 -3.783905 8.451599 -8.451599 8.451599l-53.11255 0c-4.667694 0 -8.451599 -3.783905 -8.451599 -8.451599z" fill-rule="evenodd"/><path stroke="#000000" stroke-width="2.0" stroke-linejoin="round" stroke-linecap="butt" d="m349.98294 142.85582l0 0c0 -4.6677094 3.783905 -8.451614 8.451599 -8.451614l53.11255 0c2.2414856 0 4.391205 0.89042664 5.976166 2.475418c1.5849915 1.5849762 2.4754333 3.7346802 2.4754333 5.9761963l0 33.805435c0 4.667694 -3.783905 8.451599 -8.451599 8.451599l-53.11255 0c-4.667694 0 -8.451599 -3.783905 -8.451599 -8.451599z" fill-rule="evenodd"/><path fill="#000000" d="m370.86285 166.67853l0 -11.09375l-3.953125 0l0 -2.265625l10.609375 0l0 2.265625l-3.953125 0l0 11.09375l-2.703125 0zm12.588684 -3.078125l2.546875 0.421875q-0.484375 1.40625 -1.546875 2.140625q-1.0625 0.734375 -2.65625 0.734375q-2.515625 0 -3.734375 -1.65625q-0.953125 -1.3125 -0.953125 -3.328125q0 -2.40625 1.25 -3.765625q1.265625 -1.359375 3.1875 -1.359375q2.15625 0 3.40625 1.421875q1.25 1.421875 1.1875 4.375l-6.40625 0q0.03125 1.140625 0.609375 1.78125q0.59375 0.625 1.484375 0.625q0.59375 0 1.0 -0.328125q0.421875 -0.328125 0.625 -1.0625zm0.15625 -2.59375q-0.03125 -1.109375 -0.578125 -1.6875q-0.546875 -0.578125 -1.328125 -0.578125q-0.84375 0 -1.390625 0.609375q-0.546875 0.609375 -0.53125 1.65625l3.828125 0zm3.3913574 5.671875l3.484375 -4.984375l-3.34375 -4.6875l3.125 0l1.71875 2.65625l1.796875 -2.65625l3.015625 0l-3.28125 4.578125l3.578125 5.09375l-3.140625 0l-1.96875 -3.0l-1.984375 3.0l-3.0 0zm16.047577 -9.671875l0 2.03125l-1.75 0l0 3.90625q0 1.1875 0.046875 1.390625q0.046875 0.1875 0.21875 0.3125q0.1875 0.125 0.4375 0.125q0.359375 0 1.03125 -0.25l0.21875 2.0q-0.890625 0.375 -2.015625 0.375q-0.703125 0 -1.265625 -0.234375q-0.546875 -0.234375 -0.8125 -0.59375q-0.25 -0.375 -0.34375 -1.0q-0.09375 -0.453125 -0.09375 -1.8125l0 -4.21875l-1.171875 0l0 -2.03125l1.171875 0l0 -1.921875l2.578125 -1.5l0 3.421875l1.75 0z" fill-rule="nonzero"/><path fill="#b4a7d6" d="m572.42914 142.85582l0 0c0 -4.6677094 3.7839355 -8.451614 8.451599 -8.451614l72.38812 0c2.241516 0 4.3912354 0.89042664 5.9761963 2.475418c1.5849609 1.5849762 2.4754028 3.7346802 2.4754028 5.9761963l0 33.805435c0 4.667694 -3.7838745 8.451599 -8.451599 8.451599l-72.38812 0c-4.6676636 0 -8.451599 -3.783905 -8.451599 -8.451599z" fill-rule="evenodd"/><path stroke="#000000" stroke-width="2.0" stroke-linejoin="round" stroke-linecap="butt" d="m572.42914 142.85582l0 0c0 -4.6677094 3.7839355 -8.451614 8.451599 -8.451614l72.38812 0c2.241516 0 4.3912354 0.89042664 5.9761963 2.475418c1.5849609 1.5849762 2.4754028 3.7346802 2.4754028 5.9761963l0 33.805435c0 4.667694 -3.7838745 8.451599 -8.451599 8.451599l-72.38812 0c-4.6676636 0 -8.451599 -3.783905 -8.451599 -8.451599z" fill-rule="evenodd"/><path fill="#000000" d="m596.61176 166.67853l-4.78125 -13.359375l2.9375 0l3.375 9.890625l3.265625 -9.890625l2.859375 0l-4.78125 13.359375l-2.875 0zm8.684448 -10.984375l0 -2.375l2.5625 0l0 2.375l-2.5625 0zm0 10.984375l0 -9.671875l2.5625 0l0 9.671875l-2.5625 0zm14.05835 0l-2.390625 0l0 -1.421875q-0.59375 0.828125 -1.40625 1.234375q-0.796875 0.40625 -1.609375 0.40625q-1.671875 0 -2.859375 -1.34375q-1.1875 -1.34375 -1.1875 -3.75q0 -2.453125 1.15625 -3.734375q1.15625 -1.28125 2.921875 -1.28125q1.625 0 2.8125 1.34375l0 -4.8125l2.5625 0l0 13.359375zm-6.84375 -5.046875q0 1.546875 0.4375 2.234375q0.609375 1.015625 1.71875 1.015625q0.890625 0 1.5 -0.75q0.625 -0.765625 0.625 -2.25q0 -1.671875 -0.609375 -2.40625q-0.59375 -0.734375 -1.53125 -0.734375q-0.90625 0 -1.53125 0.734375q-0.609375 0.71875 -0.609375 2.15625zm14.958435 1.96875l2.546875 0.421875q-0.484375 1.40625 -1.546875 2.140625q-1.0625 0.734375 -2.65625 0.734375q-2.515625 0 -3.734375 -1.65625q-0.953125 -1.3125 -0.953125 -3.328125q0 -2.40625 1.25 -3.765625q1.265625 -1.359375 3.1875 -1.359375q2.15625 0 3.40625 1.421875q1.25 1.421875 1.1875 4.375l-6.40625 0q0.03125 1.140625 0.609375 1.78125q0.59375 0.625 1.484375 0.625q0.59375 0 1.0 -0.328125q0.421875 -0.328125 0.625 -1.0625zm0.15625 -2.59375q-0.03125 -1.109375 -0.578125 -1.6875q-0.546875 -0.578125 -1.328125 -0.578125q-0.84375 0 -1.390625 0.609375q-0.546875 0.609375 -0.53125 1.65625l3.828125 0zm4.0319824 0.703125q0 -1.28125 0.625 -2.46875q0.625 -1.203125 1.78125 -1.828125q1.15625 -0.625 2.578125 -0.625q2.1875 0 3.59375 1.421875q1.40625 1.421875 1.40625 3.609375q0 2.1875 -1.421875 3.640625q-1.421875 1.4375 -3.5625 1.4375q-1.328125 0 -2.546875 -0.59375q-1.203125 -0.609375 -1.828125 -1.765625q-0.625 -1.171875 -0.625 -2.828125zm2.625 0.125q0 1.453125 0.671875 2.21875q0.6875 0.75 1.6875 0.75q1.0 0 1.671875 -0.75q0.6875 -0.765625 0.6875 -2.234375q0 -1.421875 -0.6875 -2.1875q-0.671875 -0.765625 -1.671875 -0.765625q-1.0 0 -1.6875 0.765625q-0.671875 0.765625 -0.671875 2.203125z" fill-rule="nonzero"/><path fill="#d9d2e9" d="m349.98294 232.34132l0 0c0 -3.2470856 2.6322937 -5.8793793 5.8793945 -5.8793793l58.256958 0c1.5593262 0 3.054779 0.61943054 4.1573486 1.7220306c1.1026001 1.1026001 1.7220459 2.5980377 1.7220459 4.1573486l0 23.51683c0 3.2471008 -2.6322937 5.879364 -5.8793945 5.879364l-58.256958 0c-3.2471008 0 -5.8793945 -2.6322632 -5.8793945 -5.879364z" fill-rule="evenodd"/><path stroke="#000000" stroke-width="2.0" stroke-linejoin="round" stroke-linecap="butt" d="m349.98294 232.34132l0 0c0 -3.2470856 2.6322937 -5.8793793 5.8793945 -5.8793793l58.256958 0c1.5593262 0 3.054779 0.61943054 4.1573486 1.7220306c1.1026001 1.1026001 1.7220459 2.5980377 1.7220459 4.1573486l0 23.51683c0 3.2471008 -2.6322937 5.879364 -5.8793945 5.879364l-58.256958 0c-3.2471008 0 -5.8793945 -2.6322632 -5.8793945 -5.879364z" fill-rule="evenodd"/><path fill="#000000" d="m371.73242 251.01973l0 -11.09375l-3.953125 0l0 -2.265625l10.609375 0l0 2.265625l-3.953125 0l0 11.09375l-2.703125 0zm7.0365906 0l4.5625 -6.96875l-4.140625 -6.390625l3.15625 0l2.6875 4.296875l2.609375 -4.296875l3.125 0l-4.140625 6.484375l4.5625 6.875l-3.25 0l-2.96875 -4.625l-2.96875 4.625l-3.234375 0zm16.802948 0l0 -11.09375l-3.953125 0l0 -2.265625l10.609375 0l0 2.265625l-3.953125 0l0 11.09375l-2.703125 0z" fill-rule="nonzero"/><path fill="#d9d2e9" d="m343.10104 321.11823l0 0c0 -3.2471008 2.6322937 -5.8793945 5.8793945 -5.8793945l72.02075 0c1.5593262 0 3.0547485 0.6194458 4.1573486 1.7220459c1.1026001 1.1026001 1.7220459 2.598053 1.7220459 4.1573486l0 23.516815c0 3.2471008 -2.6322937 5.8793945 -5.8793945 5.8793945l-72.02075 0l0 0c-3.2471008 0 -5.8793945 -2.6322937 -5.8793945 -5.8793945z" fill-rule="evenodd"/><path stroke="#000000" stroke-width="2.0" stroke-linejoin="round" stroke-linecap="butt" d="m343.10104 321.11823l0 0c0 -3.2471008 2.6322937 -5.8793945 5.8793945 -5.8793945l72.02075 0c1.5593262 0 3.0547485 0.6194458 4.1573486 1.7220459c1.1026001 1.1026001 1.7220459 2.598053 1.7220459 4.1573486l0 23.516815c0 3.2471008 -2.6322937 5.8793945 -5.8793945 5.8793945l-72.02075 0l0 0c-3.2471008 0 -5.8793945 -2.6322937 -5.8793945 -5.8793945z" fill-rule="evenodd"/><path fill="#000000" d="m359.38412 326.43726l4.9375 0q1.65625 0 2.53125 0.265625q1.1875 0.34375 2.015625 1.234375q0.84375 0.875 1.28125 2.15625q0.4375 1.28125 0.4375 3.15625q0 1.640625 -0.40625 2.84375q-0.5 1.453125 -1.4375 2.359375q-0.703125 0.671875 -1.890625 1.0625q-0.890625 0.28125 -2.390625 0.28125l-5.078125 0l0 -13.359375zm2.703125 2.265625l0 8.84375l2.015625 0q1.125 0 1.625 -0.125q0.65625 -0.171875 1.078125 -0.5625q0.4375 -0.390625 0.703125 -1.28125q0.28125 -0.90625 0.28125 -2.453125q0 -1.546875 -0.28125 -2.375q-0.265625 -0.828125 -0.765625 -1.28125q-0.484375 -0.46875 -1.234375 -0.640625q-0.5625 -0.125 -2.21875 -0.125l-1.203125 0zm10.238556 4.5q0 -2.046875 0.609375 -3.421875q0.453125 -1.03125 1.234375 -1.828125q0.796875 -0.8125 1.734375 -1.203125q1.25 -0.53125 2.875 -0.53125q2.953125 0 4.71875 1.828125q1.78125 1.828125 1.78125 5.09375q0 3.234375 -1.765625 5.0625q-1.75 1.828125 -4.6875 1.828125q-2.984375 0 -4.75 -1.8125q-1.75 -1.828125 -1.75 -5.015625zm2.78125 -0.09375q0 2.265625 1.046875 3.4375q1.046875 1.171875 2.65625 1.171875q1.609375 0 2.640625 -1.15625q1.046875 -1.171875 1.046875 -3.484375q0 -2.296875 -1.015625 -3.421875q-1.0 -1.140625 -2.671875 -1.140625q-1.671875 0 -2.6875 1.15625q-1.015625 1.140625 -1.015625 3.4375zm20.823944 1.78125l2.609375 0.828125q-0.59375 2.1875 -2.0 3.25q-1.390625 1.0625 -3.546875 1.0625q-2.65625 0 -4.375 -1.8125q-1.703125 -1.828125 -1.703125 -4.984375q0 -3.328125 1.71875 -5.171875q1.71875 -1.84375 4.515625 -1.84375q2.453125 0 3.984375 1.4375q0.921875 0.859375 1.375 2.46875l-2.671875 0.640625q-0.234375 -1.046875 -0.984375 -1.640625q-0.75 -0.609375 -1.828125 -0.609375q-1.484375 0 -2.421875 1.078125q-0.921875 1.0625 -0.921875 3.4375q0 2.53125 0.90625 3.609375q0.921875 1.078125 2.375 1.078125q1.078125 0 1.84375 -0.671875q0.78125 -0.6875 1.125 -2.15625zm3.566681 4.90625l4.5625 -6.96875l-4.140625 -6.390625l3.15625 0l2.6875 4.296875l2.609375 -4.296875l3.125 0l-4.140625 6.484375l4.5625 6.875l-3.25 0l-2.96875 -4.625l-2.96875 4.625l-3.234375 0z" fill-rule="nonzero"/><path fill="#000000" fill-opacity="0.0" d="m384.9908 315.23883c0 -13.375275 0.01574707 -20.061554 0.03149414 -26.75055c0.01574707 -6.688965 0.03149414 -13.380615 0.03149414 -26.761261" fill-rule="evenodd"/><path stroke="#000000" stroke-width="2.0" stroke-linejoin="round" stroke-linecap="butt" d="m384.99667 303.23883l0.0039978027 -3.8826294c0.0058898926 -4.179596 0.013763428 -7.523407 0.021636963 -10.86792c0.007873535 -3.3444824 0.01574707 -6.689636 0.02166748 -10.871246l0.003967285 -3.8900146" fill-rule="evenodd"/><path fill="#000000" stroke="#000000" stroke-width="2.0" stroke-linecap="butt" d="m381.69324 303.2372l3.2990112 9.07782l3.3079224 -9.074554z" fill-rule="evenodd"/><path fill="#000000" stroke="#000000" stroke-width="2.0" stroke-linecap="butt" d="m388.35138 273.72864l-3.2990112 -9.077789l-3.3078918 9.074554z" fill-rule="evenodd"/><path fill="#000000" fill-opacity="0.0" d="m419.9987 244.09973c15.9409485 0 31.019714 22.196869 31.881927 44.393707c0.8621826 22.196838 -12.492157 44.393707 -24.984283 44.393707" fill-rule="evenodd"/><path stroke="#000000" stroke-width="2.0" stroke-linejoin="round" stroke-linecap="butt" d="m431.41284 247.8033l0.17123413 0.11152649c3.6687927 2.4277802 7.0750427 5.8960266 10.010071 10.057953c5.8701477 8.323822 9.855377 19.422241 10.2864685 30.52066c0.4310913 11.098419 -2.691925 22.196838 -7.4842834 30.52066c-1.1980896 2.0809631 -2.5004883 3.9884949 -3.8778076 5.679291c-0.68862915 0.84539795 -1.3959961 1.6365662 -2.1183777 2.368164c-0.18060303 0.18289185 -0.36218262 0.36206055 -0.5445862 0.53741455l-0.12835693 0.12176514" fill-rule="evenodd"/><path fill="#000000" stroke="#000000" stroke-width="2.0" stroke-linecap="butt" d="m432.43243 244.6611l-9.652679 0.34100342l7.613556 5.94339z" fill-rule="evenodd"/><path fill="#000000" stroke="#000000" stroke-width="2.0" stroke-linecap="butt" d="m436.30496 324.7391l-6.769684 6.889221l9.614197 -0.92596436z" fill-rule="evenodd"/><path fill="#000000" fill-opacity="0.0" d="m149.86745 224.82152c0 -15.351654 41.868027 -29.941467 75.422485 -30.703308c33.55446 -0.7618561 58.795334 12.30426 75.42247 24.989456c16.627136 12.685181 24.640533 24.98944 49.281036 24.98944" fill-rule="evenodd"/><path stroke="#000000" stroke-width="2.0" stroke-linejoin="round" stroke-linecap="butt" d="m155.94374 214.47363l0.17727661 -0.15248108c0.26359558 -0.22306824 0.5345154 -0.4452057 0.8126068 -0.66638184c4.449417 -3.5385284 10.731491 -6.8252716 18.06215 -9.656082c14.661316 -5.6616364 33.516937 -9.499542 50.294174 -9.880478c33.554443 -0.7618561 58.79532 12.30426 75.422455 24.98944c16.627136 12.685211 24.640533 24.989456 49.281036 24.989456" fill-rule="evenodd"/><path fill="#000000" stroke="#000000" stroke-width="2.0" stroke-linecap="butt" d="m153.0951 212.8009l-1.7471466 9.499359l7.444458 -6.153885z" fill-rule="evenodd"/><path fill="#d9d2e9" d="m121.19016 515.9029l57.354576 0c3.5041656 0 6.8648224 1.3920288 9.342636 3.869812c2.4778137 2.4778442 3.8698425 5.838501 3.8698425 9.342651l0 22.06311c0 3.6621094E-4 -3.0517578E-4 7.324219E-4 -7.019043E-4 7.324219E-4l-83.778824 -7.324219E-4l0 0c-3.8909912E-4 0 -7.019043E-4 -3.0517578E-4 -7.019043E-4 -6.713867E-4l7.019043E-4 -22.062439l0 0c0 -7.297058 5.9154205 -13.212463 13.212471 -13.212463z" fill-rule="evenodd"/><path stroke="#000000" stroke-width="2.0" stroke-linejoin="round" stroke-linecap="butt" d="m121.19016 515.9029l57.354576 0c3.5041656 0 6.8648224 1.3920288 9.342636 3.869812c2.4778137 2.4778442 3.8698425 5.838501 3.8698425 9.342651l0 22.06311c0 3.6621094E-4 -3.0517578E-4 7.324219E-4 -7.019043E-4 7.324219E-4l-83.778824 -7.324219E-4l0 0c-3.8909912E-4 0 -7.019043E-4 -3.0517578E-4 -7.019043E-4 -6.713867E-4l7.019043E-4 -22.062439l0 0c0 -7.297058 5.9154205 -13.212463 13.212471 -13.212463z" fill-rule="evenodd"/><path fill="#000000" d="m130.49817 529.0362l5.34375 0q1.59375 0 2.359375 0.140625q0.78125 0.125 1.390625 0.546875q0.625 0.421875 1.03125 1.125q0.40625 0.6875 0.40625 1.546875q0 0.9375 -0.5 1.734375q-0.5 0.78125 -1.375 1.171875q1.21875 0.359375 1.875 1.21875q0.65625 0.84375 0.65625 2.0q0 0.921875 -0.421875 1.78125q-0.421875 0.859375 -1.15625 1.375q-0.734375 0.515625 -1.796875 0.625q-0.6875 0.078125 -3.265625 0.09375l-4.546875 0l0 -13.359375zm2.703125 2.234375l0 3.078125l1.765625 0q1.578125 0 1.953125 -0.046875q0.703125 -0.078125 1.09375 -0.46875q0.40625 -0.40625 0.40625 -1.046875q0 -0.625 -0.34375 -1.0q-0.34375 -0.390625 -1.015625 -0.484375q-0.40625 -0.03125 -2.3125 -0.03125l-1.546875 0zm0 5.296875l0 3.578125l2.5 0q1.453125 0 1.84375 -0.078125q0.609375 -0.109375 0.984375 -0.53125q0.375 -0.421875 0.375 -1.140625q0 -0.59375 -0.296875 -1.015625q-0.28125 -0.421875 -0.84375 -0.609375q-0.546875 -0.203125 -2.390625 -0.203125l-2.171875 0zm10.738571 5.828125l0 -13.359375l4.03125 0l2.421875 9.109375l2.390625 -9.109375l4.046875 0l0 13.359375l-2.5 0l0 -10.515625l-2.65625 10.515625l-2.59375 0l-2.640625 -10.515625l0 10.515625l-2.5 0zm15.572052 0l0 -13.359375l4.328125 0q2.453125 0 3.203125 0.203125q1.140625 0.296875 1.921875 1.3125q0.78125 1.0 0.78125 2.59375q0 1.234375 -0.453125 2.078125q-0.453125 0.828125 -1.140625 1.3125q-0.6875 0.46875 -1.390625 0.625q-0.96875 0.203125 -2.796875 0.203125l-1.765625 0l0 5.03125l-2.6875 0zm2.6875 -11.09375l0 3.78125l1.484375 0q1.59375 0 2.125 -0.203125q0.546875 -0.203125 0.84375 -0.65625q0.3125 -0.453125 0.3125 -1.03125q0 -0.734375 -0.4375 -1.203125q-0.421875 -0.484375 -1.078125 -0.59375q-0.484375 -0.09375 -1.9375 -0.09375l-1.3125 0z" fill-rule="nonzero"/><path fill="#d9d2e9" d="m121.19016 564.9816l57.354576 0c3.5041656 0 6.8648224 1.3920288 9.342636 3.869812c2.4778137 2.4778442 3.8698425 5.838501 3.8698425 9.342651l0 22.06311c0 4.272461E-4 -3.0517578E-4 7.324219E-4 -7.019043E-4 7.324219E-4l-83.778824 -7.324219E-4l0 0c-3.8909912E-4 0 -7.019043E-4 -3.0517578E-4 -7.019043E-4 -6.713867E-4l7.019043E-4 -22.062439l0 0c0 -7.297058 5.9154205 -13.212463 13.212471 -13.212463z" fill-rule="evenodd"/><path stroke="#000000" stroke-width="2.0" stroke-linejoin="round" stroke-linecap="butt" d="m121.19016 564.9816l57.354576 0c3.5041656 0 6.8648224 1.3920288 9.342636 3.869812c2.4778137 2.4778442 3.8698425 5.838501 3.8698425 9.342651l0 22.06311c0 4.272461E-4 -3.0517578E-4 7.324219E-4 -7.019043E-4 7.324219E-4l-83.778824 -7.324219E-4l0 0c-3.8909912E-4 0 -7.019043E-4 -3.0517578E-4 -7.019043E-4 -6.713867E-4l7.019043E-4 -22.062439l0 0c0 -7.297058 5.9154205 -13.212463 13.212471 -13.212463z" fill-rule="evenodd"/><path fill="#000000" d="m130.84004 587.13055l2.625 -0.25q0.234375 1.3125 0.953125 1.9375q0.734375 0.609375 1.96875 0.609375q1.296875 0 1.953125 -0.546875q0.671875 -0.546875 0.671875 -1.28125q0 -0.484375 -0.28125 -0.8125q-0.28125 -0.328125 -0.96875 -0.578125q-0.484375 -0.15625 -2.171875 -0.578125q-2.15625 -0.546875 -3.03125 -1.328125q-1.234375 -1.09375 -1.234375 -2.6875q0 -1.015625 0.578125 -1.90625q0.578125 -0.890625 1.65625 -1.34375q1.09375 -0.46875 2.640625 -0.46875q2.515625 0 3.78125 1.109375q1.28125 1.09375 1.34375 2.9375l-2.703125 0.109375q-0.171875 -1.03125 -0.75 -1.46875q-0.5625 -0.453125 -1.703125 -0.453125q-1.171875 0 -1.84375 0.46875q-0.421875 0.3125 -0.421875 0.84375q0 0.46875 0.40625 0.796875q0.5 0.4375 2.46875 0.90625q1.96875 0.453125 2.90625 0.953125q0.953125 0.5 1.484375 1.359375q0.53125 0.859375 0.53125 2.125q0 1.15625 -0.640625 2.15625q-0.640625 1.0 -1.8125 1.484375q-1.15625 0.484375 -2.890625 0.484375q-2.53125 0 -3.890625 -1.171875q-1.359375 -1.171875 -1.625 -3.40625zm16.537323 4.34375l-4.78125 -13.359375l2.9375 0l3.375 9.890625l3.265625 -9.890625l2.859375 0l-4.78125 13.359375l-2.875 0zm15.240448 -4.90625l0 -2.25l5.8125 0l0 5.3125q-0.84375 0.828125 -2.453125 1.453125q-1.609375 0.625 -3.25 0.625q-2.09375 0 -3.65625 -0.875q-1.5625 -0.890625 -2.34375 -2.515625q-0.78125 -1.640625 -0.78125 -3.5625q0 -2.09375 0.875 -3.703125q0.875 -1.625 2.5625 -2.5q1.28125 -0.65625 3.203125 -0.65625q2.484375 0 3.875 1.046875q1.40625 1.03125 1.796875 2.875l-2.671875 0.5q-0.28125 -0.984375 -1.0625 -1.546875q-0.78125 -0.578125 -1.9375 -0.578125q-1.78125 0 -2.828125 1.125q-1.03125 1.125 -1.03125 3.328125q0 2.375 1.046875 3.5625q1.0625 1.1875 2.78125 1.1875q0.84375 0 1.6875 -0.328125q0.859375 -0.328125 1.46875 -0.8125l0 -1.6875l-3.09375 0z" fill-rule="nonzero"/><path fill="#d9d2e9" d="m121.19016 614.06036l57.354576 0c3.5041656 0 6.8648224 1.3920288 9.342636 3.869873c2.4778137 2.4777832 3.8698425 5.83844 3.8698425 9.34259l0 22.06311c0 4.272461E-4 -3.0517578E-4 7.324219E-4 -7.019043E-4 7.324219E-4l-83.778824 -7.324219E-4l0 0c-3.8909912E-4 0 -7.019043E-4 -3.0517578E-4 -7.019043E-4 -6.713867E-4l7.019043E-4 -22.062439l0 0c0 -7.297058 5.9154205 -13.212463 13.212471 -13.212463z" fill-rule="evenodd"/><path stroke="#000000" stroke-width="2.0" stroke-linejoin="round" stroke-linecap="butt" d="m121.19016 614.06036l57.354576 0c3.5041656 0 6.8648224 1.3920288 9.342636 3.869873c2.4778137 2.4777832 3.8698425 5.83844 3.8698425 9.34259l0 22.06311c0 4.272461E-4 -3.0517578E-4 7.324219E-4 -7.019043E-4 7.324219E-4l-83.778824 -7.324219E-4l0 0c-3.8909912E-4 0 -7.019043E-4 -3.0517578E-4 -7.019043E-4 -6.713867E-4l7.019043E-4 -22.062439l0 0c0 -7.297058 5.9154205 -13.212463 13.212471 -13.212463z" fill-rule="evenodd"/><path fill="#000000" d="m141.8846 635.6468l0 -2.25l5.8125 0l0 5.3125q-0.84375 0.828125 -2.453125 1.453125q-1.609375 0.625 -3.25 0.625q-2.09375 0 -3.65625 -0.875q-1.5625 -0.890625 -2.34375 -2.515625q-0.78125 -1.640625 -0.78125 -3.5625q0 -2.09375 0.875 -3.703125q0.875 -1.625 2.5625 -2.5q1.28125 -0.65625 3.203125 -0.65625q2.484375 0 3.875 1.046875q1.40625 1.03125 1.796875 2.875l-2.671875 0.5q-0.28125 -0.984375 -1.0625 -1.546875q-0.78125 -0.578125 -1.9375 -0.578125q-1.78125 0 -2.828125 1.125q-1.03125 1.125 -1.03125 3.328125q0 2.375 1.046875 3.5625q1.0625 1.1875 2.78125 1.1875q0.84375 0 1.6875 -0.328125q0.859375 -0.328125 1.46875 -0.8125l0 -1.6875l-3.09375 0zm8.230179 4.90625l0 -13.359375l2.6875 0l0 13.359375l-2.6875 0zm5.277054 0l0 -13.359375l9.15625 0l0 2.265625l-6.453125 0l0 3.15625l5.5625 0l0 2.265625l-5.5625 0l0 5.671875l-2.703125 0z" fill-rule="nonzero"/><path fill="#d9d2e9" d="m356.32928 515.9029l57.354553 0c3.504181 0 6.8648376 1.3920288 9.342651 3.869812c2.4778137 2.4778442 3.8698425 5.838501 3.8698425 9.342651l0 22.06311c0 3.6621094E-4 -3.0517578E-4 7.324219E-4 -7.019043E-4 7.324219E-4l-83.77884 -7.324219E-4l0 0c-3.6621094E-4 0 -7.019043E-4 -3.0517578E-4 -7.019043E-4 -6.713867E-4l7.019043E-4 -22.062439l0 0c0 -7.297058 5.915436 -13.212463 13.212494 -13.212463z" fill-rule="evenodd"/><path stroke="#000000" stroke-width="2.0" stroke-linejoin="round" stroke-linecap="butt" d="m356.32928 515.9029l57.354553 0c3.504181 0 6.8648376 1.3920288 9.342651 3.869812c2.4778137 2.4778442 3.8698425 5.838501 3.8698425 9.342651l0 22.06311c0 3.6621094E-4 -3.0517578E-4 7.324219E-4 -7.019043E-4 7.324219E-4l-83.77884 -7.324219E-4l0 0c-3.6621094E-4 0 -7.019043E-4 -3.0517578E-4 -7.019043E-4 -6.713867E-4l7.019043E-4 -22.062439l0 0c0 -7.297058 5.915436 -13.212463 13.212494 -13.212463z" fill-rule="evenodd"/><path fill="#000000" d="m371.82782 542.39557l0 -13.359375l4.03125 0l2.421875 9.109375l2.390625 -9.109375l4.046875 0l0 13.359375l-2.5 0l0 -10.515625l-2.65625 10.515625l-2.59375 0l-2.640625 -10.515625l0 10.515625l-2.5 0zm15.556427 -13.359375l4.9375 0q1.65625 0 2.53125 0.265625q1.1875 0.34375 2.015625 1.234375q0.84375 0.875 1.28125 2.15625q0.4375 1.28125 0.4375 3.15625q0 1.640625 -0.40625 2.84375q-0.5 1.453125 -1.4375 2.359375q-0.703125 0.671875 -1.890625 1.0625q-0.890625 0.28125 -2.390625 0.28125l-5.078125 0l0 -13.359375zm2.703125 2.265625l0 8.84375l2.015625 0q1.125 0 1.625 -0.125q0.65625 -0.171875 1.078125 -0.5625q0.4375 -0.390625 0.703125 -1.28125q0.28125 -0.90625 0.28125 -2.453125q0 -1.546875 -0.28125 -2.375q-0.265625 -0.828125 -0.765625 -1.28125q-0.484375 -0.46875 -1.234375 -0.640625q-0.5625 -0.125 -2.21875 -0.125l-1.203125 0z" fill-rule="nonzero"/><path fill="#d9d2e9" d="m356.29776 564.9816l57.354584 0c3.504181 0 6.8648376 1.3920288 9.342651 3.869812c2.4778137 2.4778442 3.8698425 5.838501 3.8698425 9.342651l0 22.06311c0 4.272461E-4 -3.3569336E-4 7.324219E-4 -7.019043E-4 7.324219E-4l-83.77884 -7.324219E-4l0 0c-3.6621094E-4 0 -7.019043E-4 -3.0517578E-4 -7.019043E-4 -6.713867E-4l7.019043E-4 -22.062439l0 0c0 -7.297058 5.915436 -13.212463 13.212463 -13.212463z" fill-rule="evenodd"/><path stroke="#000000" stroke-width="2.0" stroke-linejoin="round" stroke-linecap="butt" d="m356.29776 564.9816l57.354584 0c3.504181 0 6.8648376 1.3920288 9.342651 3.869812c2.4778137 2.4778442 3.8698425 5.838501 3.8698425 9.342651l0 22.06311c0 4.272461E-4 -3.3569336E-4 7.324219E-4 -7.019043E-4 7.324219E-4l-83.77884 -7.324219E-4l0 0c-3.6621094E-4 0 -7.019043E-4 -3.0517578E-4 -7.019043E-4 -6.713867E-4l7.019043E-4 -22.062439l0 0c0 -7.297058 5.915436 -13.212463 13.212463 -13.212463z" fill-rule="evenodd"/><path fill="#000000" d="m375.70126 586.56805l2.609375 0.828125q-0.59375 2.1875 -2.0 3.25q-1.390625 1.0625 -3.546875 1.0625q-2.65625 0 -4.375 -1.8125q-1.703125 -1.828125 -1.703125 -4.984375q0 -3.328125 1.71875 -5.171875q1.71875 -1.84375 4.515625 -1.84375q2.453125 0 3.984375 1.4375q0.921875 0.859375 1.375 2.46875l-2.671875 0.640625q-0.234375 -1.046875 -0.984375 -1.640625q-0.75 -0.609375 -1.828125 -0.609375q-1.484375 0 -2.421875 1.078125q-0.921875 1.0625 -0.921875 3.4375q0 2.53125 0.90625 3.609375q0.921875 1.078125 2.375 1.078125q1.078125 0 1.84375 -0.671875q0.78125 -0.6875 1.125 -2.15625zm4.2385864 0.5625l2.625 -0.25q0.234375 1.3125 0.953125 1.9375q0.734375 0.609375 1.96875 0.609375q1.296875 0 1.953125 -0.546875q0.671875 -0.546875 0.671875 -1.28125q0 -0.484375 -0.28125 -0.8125q-0.28125 -0.328125 -0.96875 -0.578125q-0.484375 -0.15625 -2.171875 -0.578125q-2.15625 -0.546875 -3.03125 -1.328125q-1.234375 -1.09375 -1.234375 -2.6875q0 -1.015625 0.578125 -1.90625q0.578125 -0.890625 1.65625 -1.34375q1.09375 -0.46875 2.640625 -0.46875q2.515625 0 3.78125 1.109375q1.28125 1.09375 1.34375 2.9375l-2.703125 0.109375q-0.171875 -1.03125 -0.75 -1.46875q-0.5625 -0.453125 -1.703125 -0.453125q-1.171875 0 -1.84375 0.46875q-0.421875 0.3125 -0.421875 0.84375q0 0.46875 0.40625 0.796875q0.5 0.4375 2.46875 0.90625q1.96875 0.453125 2.90625 0.953125q0.953125 0.5 1.484375 1.359375q0.53125 0.859375 0.53125 2.125q0 1.15625 -0.640625 2.15625q-0.640625 1.0 -1.8125 1.484375q-1.15625 0.484375 -2.890625 0.484375q-2.53125 0 -3.890625 -1.171875q-1.359375 -1.171875 -1.625 -3.40625zm16.537323 4.34375l-4.78125 -13.359375l2.9375 0l3.375 9.890625l3.265625 -9.890625l2.859375 0l-4.78125 13.359375l-2.875 0z" fill-rule="nonzero"/><path fill="#d9d2e9" d="m588.3975 515.9029l57.354553 0c3.5042114 0 6.864807 1.3920288 9.342651 3.869812c2.4778442 2.4778442 3.869812 5.838501 3.869812 9.342651l0 22.06311c0 3.6621094E-4 -3.0517578E-4 7.324219E-4 -6.713867E-4 7.324219E-4l-83.77881 -7.324219E-4l0 0c-4.272461E-4 0 -7.324219E-4 -3.0517578E-4 -7.324219E-4 -6.713867E-4l7.324219E-4 -22.062439l0 0c0 -7.297058 5.9154053 -13.212463 13.212463 -13.212463z" fill-rule="evenodd"/><path stroke="#000000" stroke-width="2.0" stroke-linejoin="round" stroke-linecap="butt" d="m588.3975 515.9029l57.354553 0c3.5042114 0 6.864807 1.3920288 9.342651 3.869812c2.4778442 2.4778442 3.869812 5.838501 3.869812 9.342651l0 22.06311c0 3.6621094E-4 -3.0517578E-4 7.324219E-4 -6.713867E-4 7.324219E-4l-83.77881 -7.324219E-4l0 0c-4.272461E-4 0 -7.324219E-4 -3.0517578E-4 -7.324219E-4 -6.713867E-4l7.324219E-4 -22.062439l0 0c0 -7.297058 5.9154053 -13.212463 13.212463 -13.212463z" fill-rule="evenodd"/><path fill="#000000" d="m599.2229 542.39557l0 -13.359375l4.03125 0l2.421875 9.109375l2.390625 -9.109375l4.046875 0l0 13.359375l-2.5 0l0 -10.515625l-2.65625 10.515625l-2.59375 0l-2.640625 -10.515625l0 10.515625l-2.5 0zm15.5720215 0l0 -13.359375l4.328125 0q2.453125 0 3.203125 0.203125q1.140625 0.296875 1.921875 1.3125q0.78125 1.0 0.78125 2.59375q0 1.234375 -0.453125 2.078125q-0.453125 0.828125 -1.140625 1.3125q-0.6875 0.46875 -1.390625 0.625q-0.96875 0.203125 -2.796875 0.203125l-1.765625 0l0 5.03125l-2.6875 0zm2.6875 -11.09375l0 3.78125l1.484375 0q1.59375 0 2.125 -0.203125q0.546875 -0.203125 0.84375 -0.65625q0.3125 -0.453125 0.3125 -1.03125q0 -0.734375 -0.4375 -1.203125q-0.421875 -0.484375 -1.078125 -0.59375q-0.484375 -0.09375 -1.9375 -0.09375l-1.3125 0zm9.0998535 7.546875l2.46875 -0.296875q0.125 0.953125 0.640625 1.453125q0.53125 0.5 1.265625 0.5q0.78125 0 1.328125 -0.59375q0.546875 -0.609375 0.546875 -1.640625q0 -0.953125 -0.53125 -1.515625q-0.515625 -0.578125 -1.25 -0.578125q-0.5 0 -1.1875 0.203125l0.28125 -2.09375q1.046875 0.03125 1.59375 -0.4375q0.546875 -0.484375 0.546875 -1.28125q0 -0.671875 -0.40625 -1.078125q-0.390625 -0.40625 -1.0625 -0.40625q-0.65625 0 -1.125 0.46875q-0.453125 0.453125 -0.5625 1.328125l-2.359375 -0.40625q0.25 -1.203125 0.734375 -1.921875q0.5 -0.734375 1.390625 -1.140625q0.890625 -0.421875 2.0 -0.421875q1.875 0 3.015625 1.203125q0.9375 0.984375 0.9375 2.21875q0 1.765625 -1.921875 2.8125q1.15625 0.234375 1.84375 1.09375q0.6875 0.859375 0.6875 2.0625q0 1.765625 -1.296875 3.015625q-1.28125 1.234375 -3.1875 1.234375q-1.8125 0 -3.015625 -1.046875q-1.1875 -1.046875 -1.375 -2.734375z" fill-rule="nonzero"/><path fill="#d9d2e9" d="m588.3975 564.9816l57.354553 0c3.5042114 0 6.864807 1.3920288 9.342651 3.869812c2.4778442 2.4778442 3.869812 5.838501 3.869812 9.342651l0 22.06311c0 4.272461E-4 -3.0517578E-4 7.324219E-4 -6.713867E-4 7.324219E-4l-83.77881 -7.324219E-4l0 0c-4.272461E-4 0 -7.324219E-4 -3.0517578E-4 -7.324219E-4 -6.713867E-4l7.324219E-4 -22.062439l0 0c0 -7.297058 5.9154053 -13.212463 13.212463 -13.212463z" fill-rule="evenodd"/><path stroke="#000000" stroke-width="2.0" stroke-linejoin="round" stroke-linecap="butt" d="m588.3975 564.9816l57.354553 0c3.5042114 0 6.864807 1.3920288 9.342651 3.869812c2.4778442 2.4778442 3.869812 5.838501 3.869812 9.342651l0 22.06311c0 4.272461E-4 -3.0517578E-4 7.324219E-4 -6.713867E-4 7.324219E-4l-83.77881 -7.324219E-4l0 0c-4.272461E-4 0 -7.324219E-4 -3.0517578E-4 -7.324219E-4 -6.713867E-4l7.324219E-4 -22.062439l0 0c0 -7.297058 5.9154053 -13.212463 13.212463 -13.212463z" fill-rule="evenodd"/><path fill="#000000" d="m599.2229 591.4743l0 -13.359375l4.03125 0l2.421875 9.109375l2.390625 -9.109375l4.046875 0l0 13.359375l-2.5 0l0 -10.515625l-2.65625 10.515625l-2.59375 0l-2.640625 -10.515625l0 10.515625l-2.5 0zm15.5720215 0l0 -13.359375l4.328125 0q2.453125 0 3.203125 0.203125q1.140625 0.296875 1.921875 1.3125q0.78125 1.0 0.78125 2.59375q0 1.234375 -0.453125 2.078125q-0.453125 0.828125 -1.140625 1.3125q-0.6875 0.46875 -1.390625 0.625q-0.96875 0.203125 -2.796875 0.203125l-1.765625 0l0 5.03125l-2.6875 0zm2.6875 -11.09375l0 3.78125l1.484375 0q1.59375 0 2.125 -0.203125q0.546875 -0.203125 0.84375 -0.65625q0.3125 -0.453125 0.3125 -1.03125q0 -0.734375 -0.4375 -1.203125q-0.421875 -0.484375 -1.078125 -0.59375q-0.484375 -0.09375 -1.9375 -0.09375l-1.3125 0zm14.2092285 11.09375l0 -2.6875l-5.46875 0l0 -2.234375l5.796875 -8.484375l2.15625 0l0 8.46875l1.65625 0l0 2.25l-1.65625 0l0 2.6875l-2.484375 0zm0 -4.9375l0 -4.5625l-3.078125 4.5625l3.078125 0z" fill-rule="nonzero"/><path fill="#d9d2e9" d="m588.3975 614.06036l57.354553 0c3.5042114 0 6.864807 1.3920288 9.342651 3.869873c2.4778442 2.4777832 3.869812 5.83844 3.869812 9.34259l0 22.06311c0 4.272461E-4 -3.0517578E-4 7.324219E-4 -6.713867E-4 7.324219E-4l-83.77881 -7.324219E-4l0 0c-4.272461E-4 0 -7.324219E-4 -3.0517578E-4 -7.324219E-4 -6.713867E-4l7.324219E-4 -22.062439l0 0c0 -7.297058 5.9154053 -13.212463 13.212463 -13.212463z" fill-rule="evenodd"/><path stroke="#000000" stroke-width="2.0" stroke-linejoin="round" stroke-linecap="butt" d="m588.3975 614.06036l57.354553 0c3.5042114 0 6.864807 1.3920288 9.342651 3.869873c2.4778442 2.4777832 3.869812 5.83844 3.869812 9.34259l0 22.06311c0 4.272461E-4 -3.0517578E-4 7.324219E-4 -6.713867E-4 7.324219E-4l-83.77881 -7.324219E-4l0 0c-4.272461E-4 0 -7.324219E-4 -3.0517578E-4 -7.324219E-4 -6.713867E-4l7.324219E-4 -22.062439l0 0c0 -7.297058 5.9154053 -13.212463 13.212463 -13.212463z" fill-rule="evenodd"/><path fill="#000000" d="m597.155 640.55304l0 -13.359375l4.03125 0l2.421875 9.109375l2.390625 -9.109375l4.046875 0l0 13.359375l-2.5 0l0 -10.515625l-2.65625 10.515625l-2.59375 0l-2.640625 -10.515625l0 10.515625l-2.5 0zm15.0251465 -6.59375q0 -2.046875 0.609375 -3.421875q0.453125 -1.03125 1.234375 -1.828125q0.796875 -0.8125 1.734375 -1.203125q1.25 -0.53125 2.875 -0.53125q2.953125 0 4.71875 1.828125q1.78125 1.828125 1.78125 5.09375q0 3.234375 -1.765625 5.0625q-1.75 1.828125 -4.6875 1.828125q-2.984375 0 -4.75 -1.8125q-1.75 -1.828125 -1.75 -5.015625zm2.78125 -0.09375q0 2.265625 1.046875 3.4375q1.046875 1.171875 2.65625 1.171875q1.609375 0 2.640625 -1.15625q1.046875 -1.171875 1.046875 -3.484375q0 -2.296875 -1.015625 -3.421875q-1.0 -1.140625 -2.671875 -1.140625q-1.671875 0 -2.6875 1.15625q-1.015625 1.140625 -1.015625 3.4375zm15.68335 6.6875l-4.78125 -13.359375l2.9375 0l3.375 9.890625l3.265625 -9.890625l2.859375 0l-4.78125 13.359375l-2.875 0z" fill-rule="nonzero"/><path fill="#d9d2e9" d="m588.3975 663.1391l57.354553 0c3.5042114 0 6.864807 1.3920288 9.342651 3.869873c2.4778442 2.4777832 3.869812 5.83844 3.869812 9.34259l0 22.06311c0 4.272461E-4 -3.0517578E-4 7.324219E-4 -6.713867E-4 7.324219E-4l-83.77881 -7.324219E-4l0 0c-4.272461E-4 0 -7.324219E-4 -3.0517578E-4 -7.324219E-4 -6.713867E-4l7.324219E-4 -22.062439l0 0c0 -7.297058 5.9154053 -13.212463 13.212463 -13.212463z" fill-rule="evenodd"/><path stroke="#000000" stroke-width="2.0" stroke-linejoin="round" stroke-linecap="butt" d="m588.3975 663.1391l57.354553 0c3.5042114 0 6.864807 1.3920288 9.342651 3.869873c2.4778442 2.4777832 3.869812 5.83844 3.869812 9.34259l0 22.06311c0 4.272461E-4 -3.0517578E-4 7.324219E-4 -6.713867E-4 7.324219E-4l-83.77881 -7.324219E-4l0 0c-4.272461E-4 0 -7.324219E-4 -3.0517578E-4 -7.324219E-4 -6.713867E-4l7.324219E-4 -22.062439l0 0c0 -7.297058 5.9154053 -13.212463 13.212463 -13.212463z" fill-rule="evenodd"/><path fill="#000000" d="m615.62384 689.6318l-2.9375 0l-1.171875 -3.03125l-5.328125 0l-1.109375 3.03125l-2.859375 0l5.203125 -13.359375l2.84375 0l5.359375 13.359375zm-4.96875 -5.28125l-1.84375 -4.953125l-1.796875 4.953125l3.640625 0zm8.415649 5.28125l-4.78125 -13.359375l2.9375 0l3.375 9.890625l3.265625 -9.890625l2.859375 0l-4.78125 13.359375l-2.875 0zm8.9592285 0l0 -13.359375l2.6875 0l0 13.359375l-2.6875 0z" fill-rule="nonzero"/><path fill="#e06666" d="m578.7598 279.66403l0 0c0 -19.6474 17.154236 -35.5748 38.315002 -35.5748l0 0c21.160767 0 38.31494 15.927399 38.31494 35.5748l0 0c0 19.64743 -17.154175 35.5748 -38.31494 35.5748l0 0c-21.160767 0 -38.315002 -15.927368 -38.315002 -35.5748zm59.970825 11.07486l0 0c5.5630493 -8.621948 4.0198364 -19.48404 -3.779358 -26.601288c-7.7991333 -7.117279 -19.957947 -8.759247 -29.777039 -4.02124zm-43.311707 -22.149689l0 0c-5.5630493 8.621948 -4.0198364 19.484009 3.779358 26.601288c7.7991333 7.1172485 19.958008 8.759247 29.777039 4.0212097z" fill-rule="evenodd"/><path stroke="#000000" stroke-width="2.0" stroke-linejoin="round" stroke-linecap="butt" d="m578.7598 279.66403l0 0c0 -19.6474 17.154236 -35.5748 38.315002 -35.5748l0 0c21.160767 0 38.31494 15.927399 38.31494 35.5748l0 0c0 19.64743 -17.154175 35.5748 -38.31494 35.5748l0 0c-21.160767 0 -38.315002 -15.927368 -38.315002 -35.5748zm59.970825 11.07486l0 0c5.5630493 -8.621948 4.0198364 -19.48404 -3.779358 -26.601288c-7.7991333 -7.117279 -19.957947 -8.759247 -29.777039 -4.02124zm-43.311707 -22.149689l0 0c-5.5630493 8.621948 -4.0198364 19.484009 3.779358 26.601288c7.7991333 7.1172485 19.958008 8.759247 29.777039 4.0212097z" fill-rule="evenodd"/><path fill="#d9d2e9" d="m70.896324 444.88846l0 0c0 -21.656525 140.639 -39.212616 314.12598 -39.212616c173.48697 0 314.126 17.556091 314.126 39.212616l-19.606323 0c0 -10.828278 -131.86096 -19.606293 -294.51968 -19.606293c-162.65872 0 -294.51968 8.778015 -294.51968 19.606293z" fill-rule="evenodd"/><path stroke="#000000" stroke-width="3.0" stroke-linejoin="round" stroke-linecap="butt" d="m70.896324 444.88846l0 0c0 -21.656525 140.639 -39.212616 314.12598 -39.212616c173.48697 0 314.126 17.556091 314.126 39.212616l-19.606323 0c0 -10.828278 -131.86096 -19.606293 -294.51968 -19.606293c-162.65872 0 -294.51968 8.778015 -294.51968 19.606293z" fill-rule="evenodd"/><path fill="#8e7cc3" d="m89.41207 42.19685l562.4961 0l0 66.590546l-562.4961 0z" fill-rule="evenodd"/><path fill="#71639b" d="m651.90814 42.19685l22.196838 -22.19685l0 66.59055l-22.196838 22.196846z" fill-rule="evenodd"/><path fill="#a496cf" d="m89.41207 42.19685l22.196854 -22.19685l562.49603 0l-22.196838 22.19685z" fill-rule="evenodd"/><path fill="#000000" fill-opacity="0.0" d="m89.41207 42.19685l22.196854 -22.19685l562.49603 0l0 66.59055l-22.196838 22.196846l-562.4961 0zm0 0l562.4961 0l22.196838 -22.19685m-22.196838 22.19685l0 66.590546" fill-rule="evenodd"/><path stroke="#000000" stroke-width="3.0" stroke-linejoin="round" stroke-linecap="butt" d="m89.41207 42.19685l22.196854 -22.19685l562.49603 0l0 66.59055l-22.196838 22.196846l-562.4961 0zm0 0l562.4961 0l22.196838 -22.19685m-22.196838 22.19685l0 66.590546" fill-rule="evenodd"/><path fill="#000000" d="m135.04346 85.092125l-4.1875 0l-1.65625 -4.328125l-7.6406326 0l-1.5625 4.328125l-4.09375 0l7.4375 -19.078125l4.0625 0l7.6406326 19.078125zm-7.0937576 -7.546875l-2.625 -7.078125l-2.578125 7.078125l5.203125 0zm9.015923 -6.28125l3.40625 0l0 2.03125q0.671875 -1.03125 1.796875 -1.6875q1.125 -0.65625 2.515625 -0.65625q2.40625 0 4.078125 1.890625q1.6875 1.890625 1.6875 5.265625q0 3.453125 -1.703125 5.375q-1.6875 1.921875 -4.09375 1.921875q-1.140625 0 -2.078125 -0.453125q-0.921875 -0.453125 -1.953125 -1.5625l0 6.96875l-3.65625 0l0 -19.09375zm3.609375 6.6875q0 2.328125 0.921875 3.4375q0.9375 1.109375 2.265625 1.109375q1.265625 0 2.109375 -1.015625q0.859375 -1.03125 0.859375 -3.359375q0 -2.171875 -0.875 -3.21875q-0.875 -1.0625 -2.171875 -1.0625q-1.328125 0 -2.21875 1.046875q-0.890625 1.03125 -0.890625 3.0625zm12.673325 -6.6875l3.40625 0l0 2.03125q0.671875 -1.03125 1.796875 -1.6875q1.125 -0.65625 2.515625 -0.65625q2.40625 0 4.078125 1.890625q1.6875 1.890625 1.6875 5.265625q0 3.453125 -1.703125 5.375q-1.6875 1.921875 -4.09375 1.921875q-1.140625 0 -2.078125 -0.453125q-0.921875 -0.453125 -1.953125 -1.5625l0 6.96875l-3.65625 0l0 -19.09375zm3.609375 6.6875q0 2.328125 0.921875 3.4375q0.9375 1.109375 2.265625 1.109375q1.265625 0 2.109375 -1.015625q0.859375 -1.03125 0.859375 -3.359375q0 -2.171875 -0.875 -3.21875q-0.875 -1.0625 -2.171875 -1.0625q-1.328125 0 -2.21875 1.046875q-0.890625 1.03125 -0.890625 3.0625zm12.767075 7.140625l0 -19.078125l3.671875 0l0 19.078125l-3.671875 0zm7.40596 -15.703125l0 -3.375l3.671875 0l0 3.375l-3.671875 0zm0 15.703125l0 -13.828125l3.671875 0l0 13.828125l-3.671875 0zm19.46846 -9.734375l-3.609375 0.65625q-0.1875 -1.09375 -0.828125 -1.640625q-0.640625 -0.546875 -1.671875 -0.546875q-1.359375 0 -2.171875 0.953125q-0.8125 0.9375 -0.8125 3.15625q0 2.453125 0.8125 3.46875q0.828125 1.015625 2.21875 1.015625q1.046875 0 1.703125 -0.59375q0.671875 -0.59375 0.953125 -2.03125l3.578125 0.609375q-0.546875 2.46875 -2.140625 3.734375q-1.59375 1.265625 -4.25 1.265625q-3.03125 0 -4.84375 -1.90625q-1.796875 -1.921875 -1.796875 -5.296875q0 -3.4375 1.796875 -5.34375q1.8125 -1.90625 4.90625 -1.90625q2.515625 0 4.0 1.09375q1.5 1.078125 2.15625 3.3125zm5.496811 0.125l-3.3125 -0.59375q0.5625 -2.0 1.921875 -2.96875q1.375 -0.96875 4.0625 -0.96875q2.453125 0 3.640625 0.578125q1.203125 0.578125 1.6875 1.484375q0.5 0.890625 0.5 3.265625l-0.046875 4.265625q0 1.828125 0.171875 2.703125q0.171875 0.859375 0.65625 1.84375l-3.609375 0q-0.140625 -0.359375 -0.359375 -1.078125q-0.09375 -0.328125 -0.125 -0.4375q-0.9375 0.921875 -2.015625 1.375q-1.0625 0.453125 -2.265625 0.453125q-2.140625 0 -3.375 -1.15625q-1.21875 -1.15625 -1.21875 -2.9375q0 -1.171875 0.546875 -2.078125q0.5625 -0.921875 1.578125 -1.40625q1.015625 -0.484375 2.90625 -0.859375q2.5625 -0.484375 3.5625 -0.890625l0 -0.375q0 -1.046875 -0.53125 -1.5q-0.515625 -0.453125 -1.96875 -0.453125q-0.96875 0 -1.515625 0.390625q-0.546875 0.390625 -0.890625 1.34375zm4.90625 2.96875q-0.703125 0.234375 -2.234375 0.5625q-1.515625 0.328125 -1.984375 0.640625q-0.71875 0.5 -0.71875 1.28125q0 0.765625 0.5625 1.328125q0.578125 0.5625 1.46875 0.5625q0.984375 0 1.890625 -0.65625q0.65625 -0.484375 0.859375 -1.203125q0.15625 -0.46875 0.15625 -1.78125l0 -0.734375zm13.528061 -7.1875l0 2.921875l-2.5 0l0 5.5625q0 1.703125 0.0625 1.984375q0.078125 0.28125 0.328125 0.46875q0.265625 0.171875 0.625 0.171875q0.515625 0 1.46875 -0.359375l0.3125 2.84375q-1.265625 0.546875 -2.890625 0.546875q-0.984375 0 -1.78125 -0.328125q-0.796875 -0.328125 -1.171875 -0.859375q-0.359375 -0.53125 -0.5 -1.421875q-0.125 -0.640625 -0.125 -2.578125l0 -6.03125l-1.671875 0l0 -2.921875l1.671875 0l0 -2.734375l3.671875 -2.140625l0 4.875l2.5 0zm2.5329895 -1.875l0 -3.375l3.671875 0l0 3.375l-3.671875 0zm0 15.703125l0 -13.828125l3.671875 0l0 13.828125l-3.671875 0zm6.56221 -7.109375q0 -1.8125 0.890625 -3.515625q0.90625 -1.71875 2.546875 -2.609375q1.65625 -0.90625 3.6875 -0.90625q3.140625 0 5.140625 2.046875q2.0 2.03125 2.0 5.140625q0 3.140625 -2.03125 5.203125q-2.015625 2.0625 -5.078125 2.0625q-1.90625 0 -3.640625 -0.859375q-1.71875 -0.859375 -2.625 -2.515625q-0.890625 -1.65625 -0.890625 -4.046875zm3.75 0.203125q0 2.046875 0.96875 3.140625q0.984375 1.09375 2.421875 1.09375q1.421875 0 2.390625 -1.09375q0.984375 -1.09375 0.984375 -3.171875q0 -2.03125 -0.984375 -3.125q-0.96875 -1.09375 -2.390625 -1.09375q-1.4375 0 -2.421875 1.09375q-0.96875 1.09375 -0.96875 3.15625zm25.95456 6.90625l-3.6562347 0l0 -7.046875q0 -2.25 -0.234375 -2.90625q-0.234375 -0.65625 -0.765625 -1.015625q-0.515625 -0.375 -1.265625 -0.375q-0.953125 0 -1.703125 0.53125q-0.75 0.515625 -1.03125 1.375q-0.28125 0.859375 -0.28125 3.171875l0 6.265625l-3.65625 0l0 -13.828125l3.390625 0l0 2.03125q1.8125 -2.34375 4.5625 -2.34375q1.203125 0 2.2031097 0.4375q1.015625 0.4375 1.515625 1.125q0.515625 0.671875 0.71875 1.53125q0.203125 0.859375 0.203125 2.453125l0 8.59375zm11.173035 0l0 -19.078125l13.078125 0l0 3.21875l-9.234375 0l0 4.515625l7.96875 0l0 3.234375l-7.96875 0l0 8.109375l-3.84375 0zm16.220215 -15.703125l0 -3.375l3.671875 0l0 3.375l-3.671875 0zm0 15.703125l0 -13.828125l3.671875 0l0 13.828125l-3.671875 0zm7.405945 0l0 -19.078125l3.671875 0l0 19.078125l-3.671875 0zm15.4216 -4.40625l3.640625 0.625q-0.703125 2.0 -2.21875 3.046875q-1.515625 1.046875 -3.796875 1.046875q-3.609375 0 -5.328125 -2.359375q-1.375 -1.890625 -1.375 -4.765625q0 -3.4375 1.796875 -5.375q1.796875 -1.953125 4.546875 -1.953125q3.078125 0 4.859375 2.046875q1.78125 2.03125 1.703125 6.234375l-9.15625 0q0.046875 1.625 0.890625 2.53125q0.84375 0.90625 2.109375 0.90625q0.859375 0 1.4375 -0.46875q0.59375 -0.46875 0.890625 -1.515625zm0.203125 -3.6875q-0.03125 -1.59375 -0.8125 -2.421875q-0.78125 -0.828125 -1.90625 -0.828125q-1.203125 0 -1.984375 0.875q-0.78125 0.875 -0.765625 2.375l5.46875 0zm26.246521 1.078125l3.75 1.1875q-0.859375 3.125 -2.859375 4.640625q-2.0 1.515625 -5.078125 1.515625q-3.796875 0 -6.25 -2.59375q-2.4375 -2.609375 -2.4375 -7.109375q0 -4.765625 2.453125 -7.390625q2.46875 -2.640625 6.46875 -2.640625q3.5 0 5.6875 2.0625q1.3125 1.234375 1.953125 3.515625l-3.8125 0.921875q-0.34375 -1.484375 -1.421875 -2.34375q-1.0625 -0.859375 -2.59375 -0.859375q-2.125 0 -3.453125 1.53125q-1.3125 1.515625 -1.3125 4.921875q0 3.609375 1.296875 5.15625q1.296875 1.53125 3.390625 1.53125q1.53125 0 2.640625 -0.96875q1.109375 -0.984375 1.578125 -3.078125zm6.1721497 -0.09375q0 -1.8125 0.890625 -3.515625q0.90625 -1.71875 2.546875 -2.609375q1.65625 -0.90625 3.6875 -0.90625q3.140625 0 5.140625 2.046875q2.0 2.03125 2.0 5.140625q0 3.140625 -2.03125 5.203125q-2.015625 2.0625 -5.078125 2.0625q-1.90625 0 -3.640625 -0.859375q-1.71875 -0.859375 -2.625 -2.515625q-0.890625 -1.65625 -0.890625 -4.046875zm3.75 0.203125q0 2.046875 0.96875 3.140625q0.984375 1.09375 2.421875 1.09375q1.421875 0 2.390625 -1.09375q0.984375 -1.09375 0.984375 -3.171875q0 -2.03125 -0.984375 -3.125q-0.96875 -1.09375 -2.390625 -1.09375q-1.4375 0 -2.421875 1.09375q-0.96875 1.09375 -0.96875 3.15625zm25.95459 6.90625l-3.65625 0l0 -7.046875q0 -2.25 -0.234375 -2.90625q-0.234375 -0.65625 -0.765625 -1.015625q-0.515625 -0.375 -1.265625 -0.375q-0.953125 0 -1.703125 0.53125q-0.75 0.515625 -1.03125 1.375q-0.28125 0.859375 -0.28125 3.171875l0 6.265625l-3.65625 0l0 -13.828125l3.390625 0l0 2.03125q1.8125 -2.34375 4.5625 -2.34375q1.203125 0 2.203125 0.4375q1.015625 0.4375 1.515625 1.125q0.515625 0.671875 0.71875 1.53125q0.203125 0.859375 0.203125 2.453125l0 8.59375zm7.5170593 0l-5.578125 -13.828125l3.84375 0l2.609375 7.0625l0.75 2.359375q0.296875 -0.90625 0.375 -1.1875q0.1875 -0.59375 0.390625 -1.171875l2.625 -7.0625l3.765625 0l-5.5 13.828125l-3.28125 0zm19.028076 -4.40625l3.640625 0.625q-0.703125 2.0 -2.21875 3.046875q-1.515625 1.046875 -3.796875 1.046875q-3.609375 0 -5.328125 -2.359375q-1.375 -1.890625 -1.375 -4.765625q0 -3.4375 1.796875 -5.375q1.796875 -1.953125 4.546875 -1.953125q3.078125 0 4.859375 2.046875q1.78125 2.03125 1.703125 6.234375l-9.15625 0q0.046875 1.625 0.890625 2.53125q0.84375 0.90625 2.109375 0.90625q0.859375 0 1.4375 -0.46875q0.59375 -0.46875 0.890625 -1.515625zm0.203125 -3.6875q-0.03125 -1.59375 -0.8125 -2.421875q-0.78125 -0.828125 -1.90625 -0.828125q-1.203125 0 -1.984375 0.875q-0.78125 0.875 -0.765625 2.375l5.46875 0zm10.121826 8.09375l-3.671875 0l0 -13.828125l3.40625 0l0 1.96875q0.875 -1.390625 1.5625 -1.828125q0.703125 -0.453125 1.578125 -0.453125q1.25 0 2.421875 0.703125l-1.140625 3.1875q-0.921875 -0.609375 -1.71875 -0.609375q-0.765625 0 -1.296875 0.421875q-0.53125 0.421875 -0.84375 1.53125q-0.296875 1.109375 -0.296875 4.640625l0 4.265625zm5.57666 -3.9375l3.671875 -0.5625q0.234375 1.0625 0.953125 1.625q0.71875 0.546875 2.0 0.546875q1.421875 0 2.140625 -0.515625q0.46875 -0.375 0.46875 -0.984375q0 -0.421875 -0.25 -0.6875q-0.28125 -0.265625 -1.234375 -0.484375q-4.421875 -0.96875 -5.609375 -1.78125q-1.640625 -1.125 -1.640625 -3.109375q0 -1.796875 1.421875 -3.015625q1.421875 -1.234375 4.40625 -1.234375q2.828125 0 4.203125 0.9375q1.390625 0.921875 1.90625 2.71875l-3.4375 0.640625q-0.234375 -0.796875 -0.859375 -1.21875q-0.609375 -0.4375 -1.75 -0.4375q-1.4375 0 -2.0625 0.390625q-0.421875 0.296875 -0.421875 0.75q0 0.390625 0.359375 0.65625q0.5 0.375 3.421875 1.046875q2.921875 0.65625 4.078125 1.609375q1.140625 0.984375 1.140625 2.71875q0 1.90625 -1.59375 3.28125q-1.578125 1.359375 -4.6875 1.359375q-2.828125 0 -4.484375 -1.140625q-1.640625 -1.15625 -2.140625 -3.109375zm16.106201 -11.765625l0 -3.375l3.671875 0l0 3.375l-3.671875 0zm0 15.703125l0 -13.828125l3.671875 0l0 13.828125l-3.671875 0zm6.562195 -7.109375q0 -1.8125 0.890625 -3.515625q0.90625 -1.71875 2.546875 -2.609375q1.65625 -0.90625 3.6875 -0.90625q3.140625 0 5.140625 2.046875q2.0 2.03125 2.0 5.140625q0 3.140625 -2.03125 5.203125q-2.015625 2.0625 -5.078125 2.0625q-1.90625 0 -3.640625 -0.859375q-1.71875 -0.859375 -2.625 -2.515625q-0.890625 -1.65625 -0.890625 -4.046875zm3.75 0.203125q0 2.046875 0.96875 3.140625q0.984375 1.09375 2.421875 1.09375q1.421875 0 2.390625 -1.09375q0.984375 -1.09375 0.984375 -3.171875q0 -2.03125 -0.984375 -3.125q-0.96875 -1.09375 -2.390625 -1.09375q-1.4375 0 -2.421875 1.09375q-0.96875 1.09375 -0.96875 3.15625zm25.95459 6.90625l-3.65625 0l0 -7.046875q0 -2.25 -0.234375 -2.90625q-0.234375 -0.65625 -0.765625 -1.015625q-0.515625 -0.375 -1.265625 -0.375q-0.953125 0 -1.703125 0.53125q-0.75 0.515625 -1.03125 1.375q-0.28125 0.859375 -0.28125 3.171875l0 6.265625l-3.65625 0l0 -13.828125l3.390625 0l0 2.03125q1.8125 -2.34375 4.5625 -2.34375q1.203125 0 2.203125 0.4375q1.015625 0.4375 1.515625 1.125q0.515625 0.671875 0.71875 1.53125q0.203125 0.859375 0.203125 2.453125l0 8.59375zm23.34491 -7.015625l3.75 1.1875q-0.859375 3.125 -2.859375 4.640625q-2.0 1.515625 -5.078125 1.515625q-3.796875 0 -6.25 -2.59375q-2.4375 -2.609375 -2.4375 -7.109375q0 -4.765625 2.453125 -7.390625q2.46875 -2.640625 6.46875 -2.640625q3.5 0 5.6875 2.0625q1.3125 1.234375 1.953125 3.515625l-3.8125 0.921875q-0.34375 -1.484375 -1.421875 -2.34375q-1.0625 -0.859375 -2.59375 -0.859375q-2.125 0 -3.453125 1.53125q-1.3125 1.515625 -1.3125 4.921875q0 3.609375 1.296875 5.15625q1.296875 1.53125 3.390625 1.53125q1.53125 0 2.640625 -0.96875q1.109375 -0.984375 1.578125 -3.078125zm9.750305 -2.59375l-3.3125 -0.59375q0.5625 -2.0 1.921875 -2.96875q1.375 -0.96875 4.0625 -0.96875q2.453125 0 3.640625 0.578125q1.203125 0.578125 1.6875 1.484375q0.5 0.890625 0.5 3.265625l-0.046875 4.265625q0 1.828125 0.171875 2.703125q0.171875 0.859375 0.65625 1.84375l-3.609375 0q-0.140625 -0.359375 -0.359375 -1.078125q-0.09375 -0.328125 -0.125 -0.4375q-0.9375 0.921875 -2.015625 1.375q-1.0625 0.453125 -2.265625 0.453125q-2.140625 0 -3.375 -1.15625q-1.21875 -1.15625 -1.21875 -2.9375q0 -1.171875 0.546875 -2.078125q0.5625 -0.921875 1.578125 -1.40625q1.015625 -0.484375 2.90625 -0.859375q2.5625 -0.484375 3.5625 -0.890625l0 -0.375q0 -1.046875 -0.53125 -1.5q-0.515625 -0.453125 -1.96875 -0.453125q-0.96875 0 -1.515625 0.390625q-0.546875 0.390625 -0.890625 1.34375zm4.90625 2.96875q-0.703125 0.234375 -2.234375 0.5625q-1.515625 0.328125 -1.984375 0.640625q-0.71875 0.5 -0.71875 1.28125q0 0.765625 0.5625 1.328125q0.578125 0.5625 1.46875 0.5625q0.984375 0 1.890625 -0.65625q0.65625 -0.484375 0.859375 -1.203125q0.15625 -0.46875 0.15625 -1.78125l0 -0.734375zm7.090576 -7.1875l3.40625 0l0 2.03125q0.671875 -1.03125 1.796875 -1.6875q1.125 -0.65625 2.515625 -0.65625q2.40625 0 4.078125 1.890625q1.6875 1.890625 1.6875 5.265625q0 3.453125 -1.703125 5.375q-1.6875 1.921875 -4.09375 1.921875q-1.140625 0 -2.078125 -0.453125q-0.921875 -0.453125 -1.953125 -1.5625l0 6.96875l-3.65625 0l0 -19.09375zm3.609375 6.6875q0 2.328125 0.921875 3.4375q0.9375 1.109375 2.265625 1.109375q1.265625 0 2.109375 -1.015625q0.859375 -1.03125 0.859375 -3.359375q0 -2.171875 -0.875 -3.21875q-0.875 -1.0625 -2.171875 -1.0625q-1.328125 0 -2.21875 1.046875q-0.890625 1.03125 -0.890625 3.0625zm15.501465 -2.46875l-3.3125 -0.59375q0.5625 -2.0 1.921875 -2.96875q1.375 -0.96875 4.0625 -0.96875q2.453125 0 3.640625 0.578125q1.203125 0.578125 1.6875 1.484375q0.5 0.890625 0.5 3.265625l-0.046875 4.265625q0 1.828125 0.171875 2.703125q0.171875 0.859375 0.65625 1.84375l-3.609375 0q-0.140625 -0.359375 -0.359375 -1.078125q-0.09375 -0.328125 -0.125 -0.4375q-0.9375 0.921875 -2.015625 1.375q-1.0625 0.453125 -2.265625 0.453125q-2.140625 0 -3.375 -1.15625q-1.21875 -1.15625 -1.21875 -2.9375q0 -1.171875 0.546875 -2.078125q0.5625 -0.921875 1.578125 -1.40625q1.015625 -0.484375 2.90625 -0.859375q2.5625 -0.484375 3.5625 -0.890625l0 -0.375q0 -1.046875 -0.53125 -1.5q-0.515625 -0.453125 -1.96875 -0.453125q-0.96875 0 -1.515625 0.390625q-0.546875 0.390625 -0.890625 1.34375zm4.90625 2.96875q-0.703125 0.234375 -2.234375 0.5625q-1.515625 0.328125 -1.984375 0.640625q-0.71875 0.5 -0.71875 1.28125q0 0.765625 0.5625 1.328125q0.578125 0.5625 1.46875 0.5625q0.984375 0 1.890625 -0.65625q0.65625 -0.484375 0.859375 -1.203125q0.15625 -0.46875 0.15625 -1.78125l0 -0.734375zm7.028076 6.640625l0 -19.078125l3.671875 0l0 6.875q1.6875 -1.9375 4.0 -1.9375q2.53125 0 4.171875 1.828125q1.65625 1.828125 1.65625 5.265625q0 3.53125 -1.6875 5.453125q-1.671875 1.90625 -4.09375 1.90625q-1.171875 0 -2.328125 -0.59375q-1.15625 -0.59375 -1.984375 -1.75l0 2.03125l-3.40625 0zm3.640625 -7.203125q0 2.140625 0.671875 3.171875q0.953125 1.453125 2.53125 1.453125q1.203125 0 2.046875 -1.03125q0.859375 -1.03125 0.859375 -3.265625q0 -2.359375 -0.859375 -3.40625q-0.859375 -1.0625 -2.1875 -1.0625q-1.328125 0 -2.203125 1.03125q-0.859375 1.015625 -0.859375 3.109375zm12.79834 -8.5l0 -3.375l3.671875 0l0 3.375l-3.671875 0zm0 15.703125l0 -13.828125l3.671875 0l0 13.828125l-3.671875 0zm7.405945 0l0 -19.078125l3.671875 0l0 19.078125l-3.671875 0zm7.405945 -15.703125l0 -3.375l3.671875 0l0 3.375l-3.671875 0zm0 15.703125l0 -13.828125l3.671875 0l0 13.828125l-3.671875 0zm13.749695 -13.828125l0 2.921875l-2.5 0l0 5.5625q0 1.703125 0.0625 1.984375q0.078125 0.28125 0.328125 0.46875q0.265625 0.171875 0.625 0.171875q0.515625 0 1.46875 -0.359375l0.3125 2.84375q-1.265625 0.546875 -2.890625 0.546875q-0.984375 0 -1.78125 -0.328125q-0.796875 -0.328125 -1.171875 -0.859375q-0.359375 -0.53125 -0.5 -1.421875q-0.125 -0.640625 -0.125 -2.578125l0 -6.03125l-1.671875 0l0 -2.921875l1.671875 0l0 -2.734375l3.671875 -2.140625l0 4.875l2.5 0zm2.532959 -1.875l0 -3.375l3.671875 0l0 3.375l-3.671875 0zm0 15.703125l0 -13.828125l3.671875 0l0 13.828125l-3.671875 0zm15.42157 -4.40625l3.640625 0.625q-0.703125 2.0 -2.21875 3.046875q-1.515625 1.046875 -3.796875 1.046875q-3.609314 0 -5.328064 -2.359375q-1.375 -1.890625 -1.375 -4.765625q0 -3.4375 1.796875 -5.375q1.796875 -1.953125 4.546814 -1.953125q3.078125 0 4.859375 2.046875q1.78125 2.03125 1.703125 6.234375l-9.156189 0q0.046875 1.625 0.890625 2.53125q0.84368896 0.90625 2.109314 0.90625q0.859375 0 1.4375 -0.46875q0.59375 -0.46875 0.890625 -1.515625zm0.203125 -3.6875q-0.03125 -1.59375 -0.8125 -2.421875q-0.78125 -0.828125 -1.90625 -0.828125q-1.203125 0 -1.984314 0.875q-0.78125 0.875 -0.765625 2.375l5.468689 0zm5.324951 4.15625l3.671875 -0.5625q0.234375 1.0625 0.953125 1.625q0.71875 0.546875 2.0 0.546875q1.421875 0 2.140625 -0.515625q0.46875 -0.375 0.46875 -0.984375q0 -0.421875 -0.25 -0.6875q-0.28125 -0.265625 -1.234375 -0.484375q-4.421875 -0.96875 -5.609375 -1.78125q-1.640625 -1.125 -1.640625 -3.109375q0 -1.796875 1.421875 -3.015625q1.421875 -1.234375 4.40625 -1.234375q2.828125 0 4.203125 0.9375q1.390625 0.921875 1.90625 2.71875l-3.4375 0.640625q-0.234375 -0.796875 -0.859375 -1.21875q-0.609375 -0.4375 -1.75 -0.4375q-1.4375 0 -2.0625 0.390625q-0.421875 0.296875 -0.421875 0.75q0 0.390625 0.359375 0.65625q0.5 0.375 3.421875 1.046875q2.921875 0.65625 4.078125 1.609375q1.140625 0.984375 1.140625 2.71875q0 1.90625 -1.59375 3.28125q-1.578125 1.359375 -4.6875 1.359375q-2.828125 0 -4.484375 -1.140625q-1.640625 -1.15625 -2.140625 -3.109375z" fill-rule="nonzero"/></g></svg>