<svg version="1.1" viewBox="0.0 0.0 755.2939632545932 717.6482939632546" fill="none" stroke="none" stroke-linecap="square" stroke-miterlimit="10" xmlns:xlink="http://www.w3.org/1999/xlink" xmlns="http://www.w3.org/2000/svg"><clipPath id="p.0"><path d="m0 0l755.29395 0l0 717.6483l-755.29395 0l0 -717.6483z" clip-rule="nonzero"/></clipPath><g clip-path="url(#p.0)"><path fill="#000000" fill-opacity="0.0" d="m0 0l755.29395 0l0 717.6483l-755.29395 0z" fill-rule="evenodd"/><path fill="#efefef" d="m-37.060368 -10.068241l829.4173 0l0 734.77167l-829.4173 0z" fill-rule="evenodd"/><path fill="#d9d2e9" d="m114.85958 230.70091l0 0c0 -3.2471008 2.632286 -5.8793945 5.8793793 -5.8793945l58.25698 0c1.5593109 0 3.0547638 0.61943054 4.1573486 1.7220306c1.1026001 1.1026001 1.7220459 2.598053 1.7220459 4.157364l0 23.516815c0 3.2470856 -2.6322937 5.8793793 -5.8793945 5.8793793l-58.25698 0c-3.2470932 0 -5.8793793 -2.6322937 -5.8793793 -5.8793793z" fill-rule="evenodd"/><path stroke="#000000" stroke-width="2.0" stroke-linejoin="round" stroke-linecap="butt" d="m114.85958 230.70091l0 0c0 -3.2471008 2.632286 -5.8793945 5.8793793 -5.8793945l58.25698 0c1.5593109 0 3.0547638 0.61943054 4.1573486 1.7220306c1.1026001 1.1026001 1.7220459 2.598053 1.7220459 4.157364l0 23.516815c0 3.2470856 -2.6322937 5.8793793 -5.8793945 5.8793793l-58.25698 0c-3.2470932 0 -5.8793793 -2.6322937 -5.8793793 -5.8793793z" fill-rule="evenodd"/><path fill="#000000" d="m132.57057 249.37932l0 -13.359375l4.328125 0q2.453125 0 3.203125 0.203125q1.140625 0.296875 1.921875 1.3125q0.78125 1.0 0.78125 2.59375q0 1.234375 -0.453125 2.078125q-0.453125 0.828125 -1.140625 1.3125q-0.6875 0.46875 -1.390625 0.625q-0.96875 0.203125 -2.796875 0.203125l-1.765625 0l0 5.03125l-2.6875 0zm2.6875 -11.09375l0 3.78125l1.484375 0q1.59375 0 2.125 -0.203125q0.546875 -0.203125 0.84375 -0.65625q0.3125 -0.453125 0.3125 -1.03125q0 -0.734375 -0.4375 -1.203125q-0.421875 -0.484375 -1.078125 -0.59375q-0.484375 -0.09375 -1.9375 -0.09375l-1.3125 0zm9.740448 -2.265625l4.9375 0q1.65625 0 2.53125 0.265625q1.1875 0.34375 2.015625 1.234375q0.84375 0.875 1.28125 2.15625q0.4375 1.28125 0.4375 3.15625q0 1.640625 -0.40625 2.84375q-0.5 1.453125 -1.4375 2.359375q-0.703125 0.671875 -1.890625 1.0625q-0.890625 0.28125 -2.390625 0.28125l-5.078125 0l0 -13.359375zm2.703125 2.265625l0 8.84375l2.015625 0q1.125 0 1.625 -0.125q0.65625 -0.171875 1.078125 -0.5625q0.4375 -0.390625 0.703125 -1.28125q0.28125 -0.90625 0.28125 -2.453125q0 -1.546875 -0.28125 -2.375q-0.265625 -0.828125 -0.765625 -1.28125q-0.484375 -0.46875 -1.234375 -0.640625q-0.5625 -0.125 -2.21875 -0.125l-1.203125 0zm10.801071 11.09375l0 -13.359375l9.15625 0l0 2.265625l-6.453125 0l0 3.15625l5.5625 0l0 2.265625l-5.5625 0l0 5.671875l-2.703125 0z" fill-rule="nonzero"/><path fill="#b4a7d6" d="m102.18241 141.2154l0 0c0 -4.667694 3.7839203 -8.451614 8.451614 -8.451614l78.46685 0c2.241516 0 4.39122 0.8904419 5.9761963 2.475418c1.5849915 1.5849915 2.475418 3.7346954 2.475418 5.9761963l0 33.805435c0 4.667694 -3.783905 8.451614 -8.451614 8.451614l-78.46685 0c-4.667694 0 -8.451614 -3.7839203 -8.451614 -8.451614z" fill-rule="evenodd"/><path stroke="#000000" stroke-width="2.0" stroke-linejoin="round" stroke-linecap="butt" d="m102.18241 141.2154l0 0c0 -4.667694 3.7839203 -8.451614 8.451614 -8.451614l78.46685 0c2.241516 0 4.39122 0.8904419 5.9761963 2.475418c1.5849915 1.5849915 2.475418 3.7346954 2.475418 5.9761963l0 33.805435c0 4.667694 -3.783905 8.451614 -8.451614 8.451614l-78.46685 0c-4.667694 0 -8.451614 -3.7839203 -8.451614 -8.451614z" fill-rule="evenodd"/><path fill="#000000" d="m118.360664 165.0381l2.796875 -13.359375l2.75 0l-2.796875 13.359375l-2.75 0zm7.230179 -9.671875l2.4531326 0l-0.23438263 1.171875q1.4375076 -1.40625 3.0156326 -1.40625q1.09375 0 1.6875 0.46875q0.59375 0.453125 0.75 1.25q0.515625 -0.734375 1.453125 -1.21875q0.9375 -0.5 1.9375 -0.5q1.15625 0 1.796875 0.625q0.65625 0.625 0.65625 1.640625q0 0.5 -0.25 1.734375l-1.234375 5.90625l-2.625 0l1.25 -5.90625q0.21875 -1.109375 0.21875 -1.265625q0 -0.390625 -0.25 -0.625q-0.234375 -0.234375 -0.71875 -0.234375q-0.96875 0 -1.734375 1.03125q-0.5625 0.734375 -0.953125 2.609375l-0.921875 4.390625l-2.609375 0l1.21875 -5.84375q0.21875 -1.015625 0.21875 -1.3125q0 -0.390625 -0.265625 -0.625q-0.265625 -0.25 -0.71875 -0.25q-0.421875 0 -0.875 0.25q-0.453125 0.25 -0.796875 0.703125q-0.34375763 0.453125 -0.5937576 1.140625q-0.109375 0.328125 -0.359375 1.484375l-0.921875 4.453125l-2.609375 0l2.015625 -9.671875zm18.338402 2.734375l-2.546875 -0.21875q0.4375 -1.28125 1.515625 -2.015625q1.09375 -0.734375 2.890625 -0.734375q1.859375 0 2.75 0.75q0.90625 0.75 0.90625 1.84375q0 0.4375 -0.078125 0.9375q-0.078125 0.484375 -0.546875 2.578125q-0.375 1.734375 -0.375 2.421875q0 0.625 0.21875 1.375l-2.546875 0q-0.15625 -0.53125 -0.1875 -1.09375q-0.578125 0.640625 -1.328125 0.984375q-0.75 0.34375 -1.5 0.34375q-1.203125 0 -1.984375 -0.78125q-0.78125 -0.796875 -0.78125 -2.046875q0 -1.375 0.859375 -2.203125q0.859375 -0.828125 3.0625 -1.0q1.875 -0.15625 2.5 -0.375q0.171875 -0.546875 0.171875 -0.875q0 -0.421875 -0.34375 -0.703125q-0.328125 -0.28125 -1.0 -0.28125q-0.703125 0 -1.109375 0.296875q-0.40625 0.28125 -0.546875 0.796875zm2.484375 2.421875q-0.234375 0.0625 -0.625 0.125q-1.96875 0.234375 -2.578125 0.6875q-0.421875 0.328125 -0.421875 0.890625q0 0.453125 0.328125 0.765625q0.328125 0.3125 0.859375 0.3125q0.59375 0 1.109375 -0.28125q0.53125 -0.296875 0.796875 -0.734375q0.265625 -0.453125 0.453125 -1.40625l0.078125 -0.359375zm4.063217 5.03125l2.765625 0.390625q0 0.421875 0.125 0.640625q0.140625 0.21875 0.4375 0.359375q0.3125 0.15625 0.84375 0.15625q0.828125 0 1.328125 -0.328125q0.375 -0.265625 0.609375 -0.828125q0.15625 -0.34375 0.375 -1.546875l0.09375 -0.453125q-1.359375 1.125 -2.8125 1.125q-1.421875 0 -2.328125 -1.0q-0.90625 -1.0 -0.90625 -2.9375q0 -1.703125 0.609375 -3.109375q0.625 -1.421875 1.75 -2.15625q1.125 -0.734375 2.28125 -0.734375q0.96875 0 1.765625 0.515625q0.8125 0.515625 1.25 1.421875l0.375 -1.703125l2.4375 0l-1.671875 8.0625q-0.40625 1.9375 -0.6875 2.765625q-0.28125 0.828125 -0.65625 1.3125q-0.359375 0.5 -0.921875 0.828125q-0.546875 0.34375 -1.3125 0.484375q-0.75 0.140625 -1.625 0.140625q-2.0625 0 -3.109375 -0.703125q-1.046875 -0.703125 -1.046875 -2.328125q0 -0.171875 0.03125 -0.375zm3.078125 -4.671875q0 1.09375 0.5 1.671875q0.5 0.578125 1.234375 0.578125q0.6875 0 1.328125 -0.515625q0.640625 -0.515625 0.984375 -1.46875q0.34375 -0.96875 0.34375 -1.859375q0 -1.03125 -0.5625 -1.65625q-0.546875 -0.625 -1.28125 -0.625q-0.703125 0 -1.296875 0.5625q-0.578125 0.546875 -0.953125 1.703125q-0.296875 0.890625 -0.296875 1.609375zm17.880356 0.125l-6.5625 0q-0.015625 0.15625 -0.015625 0.234375q0 0.96875 0.546875 1.5625q0.5625 0.59375 1.359375 0.59375q1.296875 0 2.03125 -1.34375l2.328125 0.390625q-0.671875 1.40625 -1.828125 2.125q-1.140625 0.703125 -2.5625 0.703125q-1.9375 0 -3.171875 -1.234375q-1.21875 -1.234375 -1.21875 -3.265625q0 -2.0 1.109375 -3.546875q1.5 -2.09375 4.296875 -2.09375q1.765625 0 2.8125 1.109375q1.046875 1.09375 1.046875 3.0625q0 0.953125 -0.171875 1.703125zm-2.203125 -1.59375q0 -0.171875 0 -0.265625q0 -1.0625 -0.484375 -1.59375q-0.484375 -0.546875 -1.296875 -0.546875q-0.796875 0 -1.453125 0.609375q-0.640625 0.609375 -0.859375 1.796875l4.09375 0zm2.8132172 2.921875l2.53125 -0.40625q0.34375 0.796875 0.84375 1.140625q0.5 0.328125 1.359375 0.328125q0.90625 0 1.4375 -0.40625q0.375 -0.265625 0.375 -0.65625q0 -0.265625 -0.1875 -0.46875q-0.203125 -0.203125 -1.09375 -0.5q-2.359375 -0.78125 -2.9375 -1.234375q-0.875 -0.71875 -0.875 -1.859375q0 -1.15625 0.859375 -1.984375q1.1875 -1.15625 3.546875 -1.15625q1.859375 0 2.8125 0.6875q0.953125 0.6875 1.21875 1.84375l-2.421875 0.421875q-0.1875 -0.53125 -0.609375 -0.796875q-0.59375 -0.34375 -1.40625 -0.34375q-0.828125 0 -1.1875 0.28125q-0.359375 0.265625 -0.359375 0.609375q0 0.375 0.375 0.609375q0.21875 0.140625 1.46875 0.515625q1.90625 0.546875 2.546875 1.09375q0.921875 0.75 0.921875 1.8125q0 1.375 -1.15625 2.390625q-1.15625 1.015625 -3.265625 1.015625q-2.09375 0 -3.25 -0.765625q-1.140625 -0.78125 -1.546875 -2.171875z" fill-rule="nonzero"/><path fill="#d9d2e9" d="m56.145668 295.4778l0 0c0 -3.2471008 2.63229 -5.8793945 5.879383 -5.8793945l58.256985 0c1.5593109 0 3.0547485 0.6194458 4.1573486 1.7220459c1.1026001 1.1026001 1.7220306 2.5980225 1.7220306 4.1573486l0 23.516815c0 3.2471008 -2.632286 5.8793945 -5.8793793 5.8793945l-58.256985 0c-3.2470932 0 -5.879383 -2.6322937 -5.879383 -5.8793945z" fill-rule="evenodd"/><path stroke="#000000" stroke-width="2.0" stroke-linejoin="round" stroke-linecap="butt" d="m56.145668 295.4778l0 0c0 -3.2471008 2.63229 -5.8793945 5.879383 -5.8793945l58.256985 0c1.5593109 0 3.0547485 0.6194458 4.1573486 1.7220459c1.1026001 1.1026001 1.7220306 2.5980225 1.7220306 4.1573486l0 23.516815c0 3.2471008 -2.632286 5.8793945 -5.8793793 5.8793945l-58.256985 0c-3.2470932 0 -5.879383 -2.6322937 -5.879383 -5.8793945z" fill-rule="evenodd"/><path fill="#000000" d="m78.66006 300.79684l2.6875 0l0 8.453125q0 1.65625 -0.28125 2.5625q-0.390625 1.15625 -1.421875 1.875q-1.03125 0.703125 -2.71875 0.703125q-1.984375 0 -3.046875 -1.109375q-1.0625 -1.109375 -1.078125 -3.25l2.546875 -0.296875q0.046875 1.15625 0.34375 1.625q0.4375 0.71875 1.328125 0.71875q0.890625 0 1.265625 -0.515625q0.375 -0.515625 0.375 -2.140625l0 -8.625zm5.563217 13.359375l0 -13.359375l4.328125 0q2.453125 0 3.203125 0.203125q1.140625 0.296875 1.921875 1.3125q0.78125 1.0 0.78125 2.59375q0 1.234375 -0.453125 2.078125q-0.453125 0.828125 -1.140625 1.3125q-0.6875 0.46875 -1.390625 0.625q-0.96875 0.203125 -2.796875 0.203125l-1.765625 0l0 5.03125l-2.6875 0zm2.6875 -11.09375l0 3.78125l1.484375 0q1.59375 0 2.125 -0.203125q0.546875 -0.203125 0.84375 -0.65625q0.3125 -0.453125 0.3125 -1.03125q0 -0.734375 -0.4375 -1.203125q-0.421875 -0.484375 -1.078125 -0.59375q-0.484375 -0.09375 -1.9375 -0.09375l-1.3125 0zm15.959198 6.1875l0 -2.25l5.8125 0l0 5.3125q-0.84375 0.828125 -2.453125 1.453125q-1.609375 0.625 -3.25 0.625q-2.09375 0 -3.65625 -0.875q-1.5625 -0.890625 -2.34375 -2.515625q-0.78125 -1.640625 -0.78125 -3.5625q0 -2.09375 0.875 -3.703125q0.875 -1.625 2.5625 -2.5q1.28125 -0.65625 3.203125 -0.65625q2.484375 0 3.875 1.046875q1.40625 1.03125 1.796875 2.875l-2.671875 0.5q-0.28125 -0.984375 -1.0625 -1.546875q-0.78125 -0.578125 -1.9375 -0.578125q-1.78125 0 -2.828125 1.125q-1.03125 1.125 -1.03125 3.328125q0 2.375 1.046875 3.5625q1.0625 1.1875 2.78125 1.1875q0.84375 0 1.6875 -0.328125q0.859375 -0.328125 1.46875 -0.8125l0 -1.6875l-3.09375 0z" fill-rule="nonzero"/><path fill="#d9d2e9" d="m173.57349 295.4778l0 0c0 -3.2471008 2.6322937 -5.8793945 5.8793945 -5.8793945l58.256973 0c1.5593109 0 3.0547485 0.6194458 4.1573486 1.7220459c1.1026001 1.1026001 1.7220306 2.5980225 1.7220306 4.1573486l0 23.516815c0 3.2471008 -2.6322784 5.8793945 -5.8793793 5.8793945l-58.256973 0c-3.2471008 0 -5.8793945 -2.6322937 -5.8793945 -5.8793945z" fill-rule="evenodd"/><path stroke="#000000" stroke-width="2.0" stroke-linejoin="round" stroke-linecap="butt" d="m173.57349 295.4778l0 0c0 -3.2471008 2.6322937 -5.8793945 5.8793945 -5.8793945l58.256973 0c1.5593109 0 3.0547485 0.6194458 4.1573486 1.7220459c1.1026001 1.1026001 1.7220306 2.5980225 1.7220306 4.1573486l0 23.516815c0 3.2471008 -2.6322784 5.8793945 -5.8793793 5.8793945l-58.256973 0c-3.2471008 0 -5.8793945 -2.6322937 -5.8793945 -5.8793945z" fill-rule="evenodd"/><path fill="#000000" d="m189.72676 314.15622l0 -13.359375l4.328125 0q2.453125 0 3.203125 0.203125q1.140625 0.296875 1.921875 1.3125q0.78125 1.0 0.78125 2.59375q0 1.234375 -0.453125 2.078125q-0.453125 0.828125 -1.140625 1.3125q-0.6875 0.46875 -1.390625 0.625q-0.96875 0.203125 -2.796875 0.203125l-1.765625 0l0 5.03125l-2.6875 0zm2.6875 -11.09375l0 3.78125l1.484375 0q1.59375 0 2.125 -0.203125q0.546875 -0.203125 0.84375 -0.65625q0.3125 -0.453125 0.3125 -1.03125q0 -0.734375 -0.4375 -1.203125q-0.421875 -0.484375 -1.078125 -0.59375q-0.484375 -0.09375 -1.9375 -0.09375l-1.3125 0zm9.787323 11.09375l0 -13.359375l2.625 0l5.453125 8.921875l0 -8.921875l2.515625 0l0 13.359375l-2.703125 0l-5.390625 -8.703125l0 8.703125l-2.5 0zm19.644821 -4.90625l0 -2.25l5.8125 0l0 5.3125q-0.84375 0.828125 -2.453125 1.453125q-1.609375 0.625 -3.25 0.625q-2.09375 0 -3.65625 -0.875q-1.5625 -0.890625 -2.34375 -2.515625q-0.78125 -1.640625 -0.78125 -3.5625q0 -2.09375 0.875 -3.703125q0.875 -1.625 2.5625 -2.5q1.28125 -0.65625 3.203125 -0.65625q2.484375 0 3.875 1.046875q1.40625 1.03125 1.796875 2.875l-2.671875 0.5q-0.28125 -0.984375 -1.0625 -1.546875q-0.78125 -0.578125 -1.9375 -0.578125q-1.78125 0 -2.828125 1.125q-1.03125 1.125 -1.03125 3.328125q0 2.375 1.046875 3.5625q1.0625 1.1875 2.78125 1.1875q0.84375 0 1.6875 -0.328125q0.859375 -0.328125 1.46875 -0.8125l0 -1.6875l-3.09375 0z" fill-rule="nonzero"/><path fill="#000000" fill-opacity="0.0" d="m91.15354 289.59842c0 -23.574799 11.858269 -47.149597 23.716537 -47.149597" fill-rule="evenodd"/><path stroke="#000000" stroke-width="2.0" stroke-linejoin="round" stroke-linecap="butt" d="m92.132416 277.6384l0.01184082 -0.076049805c0.05821228 -0.3574524 0.11882782 -0.7139282 0.18180084 -1.0693359c0.25186157 -1.4216309 0.5413742 -2.8259888 0.8656235 -4.2073364c1.2969971 -5.5253296 3.1498566 -10.682343 5.3732834 -15.1026c1.1117096 -2.210144 2.316063 -4.2360992 3.5899048 -6.03183c0.6369171 -0.8978882 1.2911987 -1.7381897 1.9599686 -2.5151978c0.083595276 -0.09712219 0.16741943 -0.19325256 0.2514572 -0.28837585l0.03300476 -0.036880493" fill-rule="evenodd"/><path fill="#000000" stroke="#000000" stroke-width="2.0" stroke-linecap="butt" d="m88.83995 277.36896l2.5520935 9.315399l4.0328217 -8.776459z" fill-rule="evenodd"/><path fill="#000000" stroke="#000000" stroke-width="2.0" stroke-linecap="butt" d="m106.01303 251.19328l6.3058395 -7.3161926l-9.53331 1.5512085z" fill-rule="evenodd"/><path fill="#000000" fill-opacity="0.0" d="m208.58136 289.59842c0 -23.574799 -11.858261 -47.149597 -23.716537 -47.149597" fill-rule="evenodd"/><path stroke="#000000" stroke-width="2.0" stroke-linejoin="round" stroke-linecap="butt" d="m207.60251 277.6384l-0.011856079 -0.076049805c-0.05821228 -0.3574524 -0.11882019 -0.7139282 -0.18179321 -1.0693359c-0.25187683 -1.4216309 -0.54138184 -2.8259888 -0.8656311 -4.2073364c-1.2969971 -5.5253296 -3.1498566 -10.682343 -5.3732758 -15.1026c-1.1117249 -2.210144 -2.3160706 -4.2360992 -3.5899048 -6.03183c-0.6369324 -0.8978882 -1.291214 -1.7381897 -1.9599762 -2.5151978c-0.08358765 -0.09712219 -0.16741943 -0.19325256 -0.25146484 -0.28837585l-0.03300476 -0.036880493" fill-rule="evenodd"/><path fill="#000000" stroke="#000000" stroke-width="2.0" stroke-linecap="butt" d="m204.31004 277.9079l4.0328217 8.776459l2.5520935 -9.315399z" fill-rule="evenodd"/><path fill="#000000" stroke="#000000" stroke-width="2.0" stroke-linecap="butt" d="m196.94934 245.4283l-9.533295 -1.5512085l6.305832 7.3161926z" fill-rule="evenodd"/><path fill="#000000" fill-opacity="0.0" d="m114.85958 372.53806c-11.858269 0 -23.716537 -23.826782 -23.716537 -47.653534" fill-rule="evenodd"/><path stroke="#000000" stroke-width="2.0" stroke-linejoin="round" stroke-linecap="butt" d="m104.410355 366.63776l-0.0545578 -0.06161499c-0.08403778 -0.09609985 -0.16786957 -0.19326782 -0.2514572 -0.29144287c-0.66876984 -0.78530884 -1.3230515 -1.634613 -1.9599762 -2.5420837c-1.2738342 -1.8149109 -2.4781876 -3.8625183 -3.5899048 -6.096283c-2.2234192 -4.4675293 -4.0762787 -9.679626 -5.3732758 -15.264038c-0.32424927 -1.3960876 -0.6137619 -2.8154602 -0.8656311 -4.252289c-0.06296539 -0.3591919 -0.12358093 -0.7194824 -0.18179321 -1.08078l-0.031295776 -0.203125" fill-rule="evenodd"/><path fill="#000000" stroke="#000000" stroke-width="2.0" stroke-linecap="butt" d="m102.786064 369.5143l9.527557 1.5861206l-6.2789917 -7.3392334z" fill-rule="evenodd"/><path fill="#000000" stroke="#000000" stroke-width="2.0" stroke-linecap="butt" d="m95.395355 336.58197l-4.018547 -8.78302l-2.5672379 9.311279z" fill-rule="evenodd"/><path fill="#b4a7d6" d="m342.6391 142.85582l0 0c0 -4.6677094 3.7839355 -8.451614 8.45163 -8.451614l53.11252 0c2.241516 0 4.391205 0.89042664 5.9761963 2.475418c1.5849915 1.5849762 2.4754028 3.7346802 2.4754028 5.9761963l0 33.805435c0 4.667694 -3.783905 8.451599 -8.451599 8.451599l-53.11252 0c-4.667694 0 -8.45163 -3.783905 -8.45163 -8.451599z" fill-rule="evenodd"/><path stroke="#000000" stroke-width="2.0" stroke-linejoin="round" stroke-linecap="butt" d="m342.6391 142.85582l0 0c0 -4.6677094 3.7839355 -8.451614 8.45163 -8.451614l53.11252 0c2.241516 0 4.391205 0.89042664 5.9761963 2.475418c1.5849915 1.5849762 2.4754028 3.7346802 2.4754028 5.9761963l0 33.805435c0 4.667694 -3.783905 8.451599 -8.451599 8.451599l-53.11252 0c-4.667694 0 -8.45163 -3.783905 -8.45163 -8.451599z" fill-rule="evenodd"/><path fill="#000000" d="m365.39142 166.67853l-2.75 0l2.328125 -11.125l-3.921875 0l0.46875 -2.234375l10.53125 0l-0.46875 2.234375l-3.859375 0l-2.328125 11.125zm14.297028 -4.03125l-6.5625 0q-0.015625 0.15625 -0.015625 0.234375q0 0.96875 0.546875 1.5625q0.5625 0.59375 1.359375 0.59375q1.296875 0 2.03125 -1.34375l2.328125 0.390625q-0.671875 1.40625 -1.828125 2.125q-1.140625 0.703125 -2.5625 0.703125q-1.9375 0 -3.171875 -1.234375q-1.21875 -1.234375 -1.21875 -3.265625q0 -2.0 1.109375 -3.546875q1.5 -2.09375 4.296875 -2.09375q1.765625 0 2.8125 1.109375q1.046875 1.09375 1.046875 3.0625q0 0.953125 -0.171875 1.703125zm-2.203125 -1.59375q0 -0.171875 0 -0.265625q0 -1.0625 -0.484375 -1.59375q-0.484375 -0.546875 -1.296875 -0.546875q-0.796875 0 -1.453125 0.609375q-0.640625 0.609375 -0.859375 1.796875l4.09375 0zm7.610077 2.90625l-2.40625 2.71875l-3.203125 0l4.46875 -4.953125l-2.453125 -4.71875l2.765625 0l1.421875 2.75l2.453125 -2.75l3.171875 0l-4.484375 5.015625l2.4375 4.65625l-2.78125 0l-1.390625 -2.71875zm6.5788574 -5.015625l0.390625 -1.9375l1.28125 0l0.3125 -1.546875l3.0 -1.8125l-0.703125 3.359375l1.59375 0l-0.390625 1.9375l-1.609375 0l-0.84375 4.046875q-0.234375 1.109375 -0.234375 1.265625q0 0.296875 0.1875 0.46875q0.203125 0.171875 0.703125 0.171875q0.171875 0 0.859375 -0.0625l-0.40625 1.9375q-0.671875 0.140625 -1.390625 0.140625q-1.375 0 -2.015625 -0.53125q-0.625 -0.546875 -0.625 -1.484375q0 -0.453125 0.34375 -2.0625l0.8125 -3.890625l-1.265625 0z" fill-rule="nonzero"/><path fill="#b4a7d6" d="m572.42914 142.85582l0 0c0 -4.6677094 3.7839355 -8.451614 8.451599 -8.451614l72.38812 0c2.241516 0 4.3912354 0.89042664 5.9761963 2.475418c1.5849609 1.5849762 2.4754028 3.7346802 2.4754028 5.9761963l0 33.805435c0 4.667694 -3.7838745 8.451599 -8.451599 8.451599l-72.38812 0c-4.6676636 0 -8.451599 -3.783905 -8.451599 -8.451599z" fill-rule="evenodd"/><path stroke="#000000" stroke-width="2.0" stroke-linejoin="round" stroke-linecap="butt" d="m572.42914 142.85582l0 0c0 -4.6677094 3.7839355 -8.451614 8.451599 -8.451614l72.38812 0c2.241516 0 4.3912354 0.89042664 5.9761963 2.475418c1.5849609 1.5849762 2.4754028 3.7346802 2.4754028 5.9761963l0 33.805435c0 4.667694 -3.7838745 8.451599 -8.451599 8.451599l-72.38812 0c-4.6676636 0 -8.451599 -3.783905 -8.451599 -8.451599z" fill-rule="evenodd"/><path fill="#000000" d="m599.46136 166.67853l-2.921875 0l-2.40625 -13.359375l2.75 0l1.6875 10.109375l5.53125 -10.109375l2.71875 0l-7.359375 13.359375zm7.8446045 -13.359375l2.625 0l-0.5 2.375l-2.609375 0l0.484375 -2.375zm-0.765625 3.6875l2.625 0l-2.03125 9.671875l-2.609375 0l2.015625 -9.671875zm12.105225 9.671875l-2.484375 0l0.21875 -1.046875q-0.703125 0.6875 -1.390625 0.984375q-0.6875 0.296875 -1.5625 0.296875q-1.5 0 -2.4375 -1.03125q-0.921875 -1.03125 -0.921875 -3.03125q0 -2.328125 1.296875 -4.203125q1.3125 -1.875 3.484375 -1.875q1.9375 0 2.921875 1.546875l1.046875 -5.0l2.609375 0l-2.78125 13.359375zm-6.046875 -3.9375q0 1.046875 0.515625 1.625q0.53125 0.578125 1.296875 0.578125q0.71875 0 1.328125 -0.484375q0.609375 -0.484375 0.984375 -1.484375q0.375 -1.0 0.375 -1.921875q0 -1.046875 -0.578125 -1.6875q-0.5625 -0.65625 -1.296875 -0.65625q-1.140625 0 -1.890625 1.28125q-0.734375 1.265625 -0.734375 2.75zm17.927185 -0.09375l-6.5625 0q-0.015625 0.15625 -0.015625 0.234375q0 0.96875 0.546875 1.5625q0.5625 0.59375 1.359375 0.59375q1.296875 0 2.03125 -1.34375l2.328125 0.390625q-0.671875 1.40625 -1.828125 2.125q-1.140625 0.703125 -2.5625 0.703125q-1.9375 0 -3.171875 -1.234375q-1.21875 -1.234375 -1.21875 -3.265625q0 -2.0 1.109375 -3.546875q1.5 -2.09375 4.296875 -2.09375q1.765625 0 2.8125 1.109375q1.046875 1.09375 1.046875 3.0625q0 0.953125 -0.171875 1.703125zm-2.203125 -1.59375q0 -0.171875 0 -0.265625q0 -1.0625 -0.484375 -1.59375q-0.484375 -0.546875 -1.296875 -0.546875q-0.796875 0 -1.453125 0.609375q-0.640625 0.609375 -0.859375 1.796875l4.09375 0zm3.5319824 1.609375q0 -2.6875 1.515625 -4.28125q1.515625 -1.609375 3.984375 -1.609375q2.140625 0 3.34375 1.1875q1.203125 1.171875 1.203125 3.171875q0 2.34375 -1.5 4.0625q-1.5 1.71875 -4.03125 1.71875q-1.359375 0 -2.421875 -0.546875q-1.046875 -0.546875 -1.578125 -1.546875q-0.515625 -1.015625 -0.515625 -2.15625zm7.453125 -1.875q0 -0.921875 -0.546875 -1.484375q-0.53125 -0.5625 -1.390625 -0.5625q-0.84375 0 -1.5 0.53125q-0.65625 0.515625 -1.03125 1.515625q-0.359375 1.0 -0.359375 1.84375q0 1.03125 0.5625 1.640625q0.5625 0.609375 1.421875 0.609375q1.078125 0 1.8125 -0.921875q1.03125 -1.296875 1.03125 -3.171875z" fill-rule="nonzero"/><path fill="#d9d2e9" d="m342.6391 230.70091l0 0c0 -3.2471008 2.6322937 -5.8793945 5.8793945 -5.8793945l58.25699 0c1.5592957 0 3.0547485 0.61943054 4.1573486 1.7220306c1.1026001 1.1026001 1.7220154 2.598053 1.7220154 4.157364l0 23.516815c0 3.2470856 -2.6322937 5.8793793 -5.879364 5.8793793l-58.25699 0c-3.2471008 0 -5.8793945 -2.6322937 -5.8793945 -5.8793793z" fill-rule="evenodd"/><path stroke="#000000" stroke-width="2.0" stroke-linejoin="round" stroke-linecap="butt" d="m342.6391 230.70091l0 0c0 -3.2471008 2.6322937 -5.8793945 5.8793945 -5.8793945l58.25699 0c1.5592957 0 3.0547485 0.61943054 4.1573486 1.7220306c1.1026001 1.1026001 1.7220154 2.598053 1.7220154 4.157364l0 23.516815c0 3.2470856 -2.6322937 5.8793793 -5.879364 5.8793793l-58.25699 0c-3.2471008 0 -5.8793945 -2.6322937 -5.8793945 -5.8793793z" fill-rule="evenodd"/><path fill="#000000" d="m364.38858 249.37932l0 -11.09375l-3.953125 0l0 -2.265625l10.609375 0l0 2.265625l-3.953125 0l0 11.09375l-2.703125 0zm7.036621 0l4.5625 -6.96875l-4.140625 -6.390625l3.15625 0l2.6875 4.296875l2.609375 -4.296875l3.125 0l-4.140625 6.484375l4.5625 6.875l-3.25 0l-2.96875 -4.625l-2.96875 4.625l-3.234375 0zm16.802948 0l0 -11.09375l-3.953125 0l0 -2.265625l10.609375 0l0 2.265625l-3.953125 0l0 11.09375l-2.703125 0z" fill-rule="nonzero"/><path fill="#d9d2e9" d="m335.75723 291.33084l0 0c0 -3.2471008 2.6322632 -5.8793945 5.879364 -5.8793945l72.02075 0c1.5593262 0 3.054779 0.6194153 4.157379 1.7220154c1.1025696 1.1026001 1.7220154 2.598053 1.7220154 4.157379l0 23.516815c0 3.2471008 -2.6322937 5.879364 -5.8793945 5.879364l-72.02075 0l0 0c-3.2471008 0 -5.879364 -2.6322632 -5.879364 -5.879364z" fill-rule="evenodd"/><path stroke="#000000" stroke-width="2.0" stroke-linejoin="round" stroke-linecap="butt" d="m335.75723 291.33084l0 0c0 -3.2471008 2.6322632 -5.8793945 5.879364 -5.8793945l72.02075 0c1.5593262 0 3.054779 0.6194153 4.157379 1.7220154c1.1025696 1.1026001 1.7220154 2.598053 1.7220154 4.157379l0 23.516815c0 3.2471008 -2.6322937 5.879364 -5.8793945 5.879364l-72.02075 0l0 0c-3.2471008 0 -5.879364 -2.6322632 -5.879364 -5.879364z" fill-rule="evenodd"/><path fill="#000000" d="m352.04028 296.64987l4.9375 0q1.65625 0 2.53125 0.265625q1.1875 0.34375 2.015625 1.234375q0.84375 0.875 1.28125 2.15625q0.4375 1.28125 0.4375 3.15625q0 1.640625 -0.40625 2.84375q-0.5 1.453125 -1.4375 2.359375q-0.703125 0.671875 -1.890625 1.0625q-0.890625 0.28125 -2.390625 0.28125l-5.078125 0l0 -13.359375zm2.703125 2.265625l0 8.84375l2.015625 0q1.125 0 1.625 -0.125q0.65625 -0.171875 1.078125 -0.5625q0.4375 -0.390625 0.703125 -1.28125q0.28125 -0.90625 0.28125 -2.453125q0 -1.546875 -0.28125 -2.375q-0.265625 -0.828125 -0.765625 -1.28125q-0.484375 -0.46875 -1.234375 -0.640625q-0.5625 -0.125 -2.21875 -0.125l-1.203125 0zm10.238586 4.5q0 -2.046875 0.609375 -3.421875q0.453125 -1.03125 1.234375 -1.828125q0.796875 -0.8125 1.734375 -1.203125q1.25 -0.53125 2.875 -0.53125q2.953125 0 4.71875 1.828125q1.78125 1.828125 1.78125 5.09375q0 3.234375 -1.765625 5.0625q-1.75 1.828125 -4.6875 1.828125q-2.984375 0 -4.75 -1.8125q-1.75 -1.828125 -1.75 -5.015625zm2.78125 -0.09375q0 2.265625 1.046875 3.4375q1.046875 1.171875 2.65625 1.171875q1.609375 0 2.640625 -1.15625q1.046875 -1.171875 1.046875 -3.484375q0 -2.296875 -1.015625 -3.421875q-1.0 -1.140625 -2.671875 -1.140625q-1.671875 0 -2.6875 1.15625q-1.015625 1.140625 -1.015625 3.4375zm20.823914 1.78125l2.609375 0.828125q-0.59375 2.1875 -2.0 3.25q-1.390625 1.0625 -3.546875 1.0625q-2.65625 0 -4.375 -1.8125q-1.703125 -1.828125 -1.703125 -4.984375q0 -3.328125 1.71875 -5.171875q1.71875 -1.84375 4.515625 -1.84375q2.453125 0 3.984375 1.4375q0.921875 0.859375 1.375 2.46875l-2.671875 0.640625q-0.234375 -1.046875 -0.984375 -1.640625q-0.75 -0.609375 -1.828125 -0.609375q-1.484375 0 -2.421875 1.078125q-0.921875 1.0625 -0.921875 3.4375q0 2.53125 0.90625 3.609375q0.921875 1.078125 2.375 1.078125q1.078125 0 1.84375 -0.671875q0.78125 -0.6875 1.125 -2.15625zm3.5667114 4.90625l4.5625 -6.96875l-4.140625 -6.390625l3.15625 0l2.6875 4.296875l2.609375 -4.296875l3.1249695 0l-4.1405945 6.484375l4.5624695 6.875l-3.2499695 0l-2.96875 -4.625l-2.96875 4.625l-3.234375 0z" fill-rule="nonzero"/><path fill="#000000" fill-opacity="0.0" d="m149.86745 224.82152c0 -12.500137 31.96759 -28.551437 55.224136 -25.000275c23.256546 3.5511627 37.802048 26.704788 55.22412 51.634003c17.422089 24.929214 37.720764 51.633987 75.44153 51.633987" fill-rule="evenodd"/><path stroke="#000000" stroke-width="2.0" stroke-linejoin="round" stroke-linecap="butt" d="m149.86745 224.82152c0 -12.500137 31.96759 -28.551437 55.224136 -25.000275c23.256546 3.5511627 37.802048 26.704788 55.22412 51.634003c17.422089 24.929214 37.720764 51.633987 75.44153 51.633987" fill-rule="evenodd"/><path fill="#000000" fill-opacity="0.0" d="m149.86745 224.82152c0 -12.499985 33.000397 -24.50917 56.94458 -24.999985c23.944199 -0.4908142 38.832214 10.536743 56.944595 21.318893c18.112366 10.78215 39.449097 21.318893 78.898224 21.318893" fill-rule="evenodd"/><path stroke="#000000" stroke-width="2.0" stroke-linejoin="round" stroke-linecap="butt" d="m156.50984 214.82759l0.2531128 -0.19113159c0.47612 -0.35473633 0.9729309 -0.7059784 1.4891205 -1.0533447c1.0323792 -0.6947937 2.142334 -1.3741608 3.3195953 -2.0355072c2.3545074 -1.3226166 4.9782257 -2.572998 7.7890015 -3.7295227c11.243118 -4.626129 25.479263 -7.751129 37.451355 -7.9965363c23.944214 -0.4908142 38.832214 10.536713 56.944565 21.318878c18.112396 10.78215 39.449127 21.318893 78.898254 21.318893" fill-rule="evenodd"/><path fill="#000000" stroke="#000000" stroke-width="2.0" stroke-linecap="butt" d="m153.75862 212.99901l-2.2727509 9.387482l7.7751923 -5.7303314z" fill-rule="evenodd"/><path fill="#d9d2e9" d="m121.19016 515.9029l57.354576 0c3.5041656 0 6.8648224 1.3920288 9.342636 3.869812c2.4778137 2.4778442 3.8698425 5.838501 3.8698425 9.342651l0 22.06311c0 3.6621094E-4 -3.0517578E-4 7.324219E-4 -7.019043E-4 7.324219E-4l-83.778824 -7.324219E-4l0 0c-3.8909912E-4 0 -7.019043E-4 -3.0517578E-4 -7.019043E-4 -6.713867E-4l7.019043E-4 -22.062439l0 0c0 -7.297058 5.9154205 -13.212463 13.212471 -13.212463z" fill-rule="evenodd"/><path stroke="#000000" stroke-width="2.0" stroke-linejoin="round" stroke-linecap="butt" d="m121.19016 515.9029l57.354576 0c3.5041656 0 6.8648224 1.3920288 9.342636 3.869812c2.4778137 2.4778442 3.8698425 5.838501 3.8698425 9.342651l0 22.06311c0 3.6621094E-4 -3.0517578E-4 7.324219E-4 -7.019043E-4 7.324219E-4l-83.778824 -7.324219E-4l0 0c-3.8909912E-4 0 -7.019043E-4 -3.0517578E-4 -7.019043E-4 -6.713867E-4l7.019043E-4 -22.062439l0 0c0 -7.297058 5.9154205 -13.212463 13.212471 -13.212463z" fill-rule="evenodd"/><path fill="#000000" d="m141.8846 537.4893l0 -2.25l5.8125 0l0 5.3125q-0.84375 0.828125 -2.453125 1.453125q-1.609375 0.625 -3.25 0.625q-2.09375 0 -3.65625 -0.875q-1.5625 -0.890625 -2.34375 -2.515625q-0.78125 -1.640625 -0.78125 -3.5625q0 -2.09375 0.875 -3.703125q0.875 -1.625 2.5625 -2.5q1.28125 -0.65625 3.203125 -0.65625q2.484375 0 3.875 1.046875q1.40625 1.03125 1.796875 2.875l-2.671875 0.5q-0.28125 -0.984375 -1.0625 -1.546875q-0.78125 -0.578125 -1.9375 -0.578125q-1.78125 0 -2.828125 1.125q-1.03125 1.125 -1.03125 3.328125q0 2.375 1.046875 3.5625q1.0625 1.1875 2.78125 1.1875q0.84375 0 1.6875 -0.328125q0.859375 -0.328125 1.46875 -0.8125l0 -1.6875l-3.09375 0zm8.230179 4.90625l0 -13.359375l2.6875 0l0 13.359375l-2.6875 0zm5.277054 0l0 -13.359375l9.15625 0l0 2.265625l-6.453125 0l0 3.15625l5.5625 0l0 2.265625l-5.5625 0l0 5.671875l-2.703125 0z" fill-rule="nonzero"/><path fill="#d9d2e9" d="m348.9697 515.9029l57.354584 0c3.5041504 0 6.864807 1.3920288 9.342621 3.869812c2.4778137 2.4778442 3.8698425 5.838501 3.8698425 9.342651l0 22.06311c0 3.6621094E-4 -3.0517578E-4 7.324219E-4 -7.019043E-4 7.324219E-4l-83.77881 -7.324219E-4l0 0c-3.9672852E-4 0 -7.019043E-4 -3.0517578E-4 -7.019043E-4 -6.713867E-4l7.019043E-4 -22.062439l0 0c0 -7.297058 5.9154053 -13.212463 13.212463 -13.212463z" fill-rule="evenodd"/><path stroke="#000000" stroke-width="2.0" stroke-linejoin="round" stroke-linecap="butt" d="m348.9697 515.9029l57.354584 0c3.5041504 0 6.864807 1.3920288 9.342621 3.869812c2.4778137 2.4778442 3.8698425 5.838501 3.8698425 9.342651l0 22.06311c0 3.6621094E-4 -3.0517578E-4 7.324219E-4 -7.019043E-4 7.324219E-4l-83.77881 -7.324219E-4l0 0c-3.9672852E-4 0 -7.019043E-4 -3.0517578E-4 -7.019043E-4 -6.713867E-4l7.019043E-4 -22.062439l0 0c0 -7.297058 5.9154053 -13.212463 13.212463 -13.212463z" fill-rule="evenodd"/><path fill="#000000" d="m364.46823 542.39557l0 -13.359375l4.03125 0l2.421875 9.109375l2.390625 -9.109375l4.046875 0l0 13.359375l-2.5 0l0 -10.515625l-2.65625 10.515625l-2.59375 0l-2.640625 -10.515625l0 10.515625l-2.5 0zm15.556427 -13.359375l4.9375 0q1.65625 0 2.53125 0.265625q1.1875 0.34375 2.015625 1.234375q0.84375 0.875 1.28125 2.15625q0.4375 1.28125 0.4375 3.15625q0 1.640625 -0.40625 2.84375q-0.5 1.453125 -1.4375 2.359375q-0.703125 0.671875 -1.890625 1.0625q-0.890625 0.28125 -2.390625 0.28125l-5.078125 0l0 -13.359375zm2.703125 2.265625l0 8.84375l2.015625 0q1.125 0 1.625 -0.125q0.65625 -0.171875 1.078125 -0.5625q0.4375 -0.390625 0.703125 -1.28125q0.28125 -0.90625 0.28125 -2.453125q0 -1.546875 -0.28125 -2.375q-0.265625 -0.828125 -0.765625 -1.28125q-0.484375 -0.46875 -1.234375 -0.640625q-0.5625 -0.125 -2.21875 -0.125l-1.203125 0z" fill-rule="nonzero"/><path fill="#d9d2e9" d="m348.9697 564.9816l57.354584 0c3.5041504 0 6.864807 1.3920288 9.342621 3.869812c2.4778137 2.4778442 3.8698425 5.838501 3.8698425 9.342651l0 22.06311c0 4.272461E-4 -3.0517578E-4 7.324219E-4 -7.019043E-4 7.324219E-4l-83.77881 -7.324219E-4l0 0c-3.9672852E-4 0 -7.019043E-4 -3.0517578E-4 -7.019043E-4 -6.713867E-4l7.019043E-4 -22.062439l0 0c0 -7.297058 5.9154053 -13.212463 13.212463 -13.212463z" fill-rule="evenodd"/><path stroke="#000000" stroke-width="2.0" stroke-linejoin="round" stroke-linecap="butt" d="m348.9697 564.9816l57.354584 0c3.5041504 0 6.864807 1.3920288 9.342621 3.869812c2.4778137 2.4778442 3.8698425 5.838501 3.8698425 9.342651l0 22.06311c0 4.272461E-4 -3.0517578E-4 7.324219E-4 -7.019043E-4 7.324219E-4l-83.77881 -7.324219E-4l0 0c-3.9672852E-4 0 -7.019043E-4 -3.0517578E-4 -7.019043E-4 -6.713867E-4l7.019043E-4 -22.062439l0 0c0 -7.297058 5.9154053 -13.212463 13.212463 -13.212463z" fill-rule="evenodd"/><path fill="#000000" d="m368.3732 586.56805l2.609375 0.828125q-0.59375 2.1875 -2.0 3.25q-1.390625 1.0625 -3.546875 1.0625q-2.65625 0 -4.375 -1.8125q-1.703125 -1.828125 -1.703125 -4.984375q0 -3.328125 1.71875 -5.171875q1.71875 -1.84375 4.515625 -1.84375q2.453125 0 3.984375 1.4375q0.921875 0.859375 1.375 2.46875l-2.671875 0.640625q-0.234375 -1.046875 -0.984375 -1.640625q-0.75 -0.609375 -1.828125 -0.609375q-1.484375 0 -2.421875 1.078125q-0.921875 1.0625 -0.921875 3.4375q0 2.53125 0.90625 3.609375q0.921875 1.078125 2.375 1.078125q1.078125 0 1.84375 -0.671875q0.78125 -0.6875 1.125 -2.15625zm4.238556 0.5625l2.625 -0.25q0.234375 1.3125 0.953125 1.9375q0.734375 0.609375 1.96875 0.609375q1.296875 0 1.953125 -0.546875q0.671875 -0.546875 0.671875 -1.28125q0 -0.484375 -0.28125 -0.8125q-0.28125 -0.328125 -0.96875 -0.578125q-0.484375 -0.15625 -2.171875 -0.578125q-2.15625 -0.546875 -3.03125 -1.328125q-1.234375 -1.09375 -1.234375 -2.6875q0 -1.015625 0.578125 -1.90625q0.578125 -0.890625 1.65625 -1.34375q1.09375 -0.46875 2.640625 -0.46875q2.515625 0 3.78125 1.109375q1.28125 1.09375 1.34375 2.9375l-2.703125 0.109375q-0.171875 -1.03125 -0.75 -1.46875q-0.5625 -0.453125 -1.703125 -0.453125q-1.171875 0 -1.84375 0.46875q-0.421875 0.3125 -0.421875 0.84375q0 0.46875 0.40625 0.796875q0.5 0.4375 2.46875 0.90625q1.96875 0.453125 2.90625 0.953125q0.953125 0.5 1.484375 1.359375q0.53125 0.859375 0.53125 2.125q0 1.15625 -0.640625 2.15625q-0.640625 1.0 -1.8125 1.484375q-1.15625 0.484375 -2.890625 0.484375q-2.53125 0 -3.890625 -1.171875q-1.359375 -1.171875 -1.625 -3.40625zm16.537323 4.34375l-4.78125 -13.359375l2.9375 0l3.375 9.890625l3.265625 -9.890625l2.859375 0l-4.78125 13.359375l-2.875 0z" fill-rule="nonzero"/><path fill="#d9d2e9" d="m588.3975 515.9029l57.354553 0c3.5042114 0 6.864807 1.3920288 9.342651 3.869812c2.4778442 2.4778442 3.869812 5.838501 3.869812 9.342651l0 22.06311c0 3.6621094E-4 -3.0517578E-4 7.324219E-4 -6.713867E-4 7.324219E-4l-83.77881 -7.324219E-4l0 0c-4.272461E-4 0 -7.324219E-4 -3.0517578E-4 -7.324219E-4 -6.713867E-4l7.324219E-4 -22.062439l0 0c0 -7.297058 5.9154053 -13.212463 13.212463 -13.212463z" fill-rule="evenodd"/><path stroke="#000000" stroke-width="2.0" stroke-linejoin="round" stroke-linecap="butt" d="m588.3975 515.9029l57.354553 0c3.5042114 0 6.864807 1.3920288 9.342651 3.869812c2.4778442 2.4778442 3.869812 5.838501 3.869812 9.342651l0 22.06311c0 3.6621094E-4 -3.0517578E-4 7.324219E-4 -6.713867E-4 7.324219E-4l-83.77881 -7.324219E-4l0 0c-4.272461E-4 0 -7.324219E-4 -3.0517578E-4 -7.324219E-4 -6.713867E-4l7.324219E-4 -22.062439l0 0c0 -7.297058 5.9154053 -13.212463 13.212463 -13.212463z" fill-rule="evenodd"/><path fill="#000000" d="m599.2229 542.39557l0 -13.359375l4.03125 0l2.421875 9.109375l2.390625 -9.109375l4.046875 0l0 13.359375l-2.5 0l0 -10.515625l-2.65625 10.515625l-2.59375 0l-2.640625 -10.515625l0 10.515625l-2.5 0zm15.5720215 0l0 -13.359375l4.328125 0q2.453125 0 3.203125 0.203125q1.140625 0.296875 1.921875 1.3125q0.78125 1.0 0.78125 2.59375q0 1.234375 -0.453125 2.078125q-0.453125 0.828125 -1.140625 1.3125q-0.6875 0.46875 -1.390625 0.625q-0.96875 0.203125 -2.796875 0.203125l-1.765625 0l0 5.03125l-2.6875 0zm2.6875 -11.09375l0 3.78125l1.484375 0q1.59375 0 2.125 -0.203125q0.546875 -0.203125 0.84375 -0.65625q0.3125 -0.453125 0.3125 -1.03125q0 -0.734375 -0.4375 -1.203125q-0.421875 -0.484375 -1.078125 -0.59375q-0.484375 -0.09375 -1.9375 -0.09375l-1.3125 0zm9.0998535 7.546875l2.46875 -0.296875q0.125 0.953125 0.640625 1.453125q0.53125 0.5 1.265625 0.5q0.78125 0 1.328125 -0.59375q0.546875 -0.609375 0.546875 -1.640625q0 -0.953125 -0.53125 -1.515625q-0.515625 -0.578125 -1.25 -0.578125q-0.5 0 -1.1875 0.203125l0.28125 -2.09375q1.046875 0.03125 1.59375 -0.4375q0.546875 -0.484375 0.546875 -1.28125q0 -0.671875 -0.40625 -1.078125q-0.390625 -0.40625 -1.0625 -0.40625q-0.65625 0 -1.125 0.46875q-0.453125 0.453125 -0.5625 1.328125l-2.359375 -0.40625q0.25 -1.203125 0.734375 -1.921875q0.5 -0.734375 1.390625 -1.140625q0.890625 -0.421875 2.0 -0.421875q1.875 0 3.015625 1.203125q0.9375 0.984375 0.9375 2.21875q0 1.765625 -1.921875 2.8125q1.15625 0.234375 1.84375 1.09375q0.6875 0.859375 0.6875 2.0625q0 1.765625 -1.296875 3.015625q-1.28125 1.234375 -3.1875 1.234375q-1.8125 0 -3.015625 -1.046875q-1.1875 -1.046875 -1.375 -2.734375z" fill-rule="nonzero"/><path fill="#d9d2e9" d="m588.3975 564.9816l57.354553 0c3.5042114 0 6.864807 1.3920288 9.342651 3.869812c2.4778442 2.4778442 3.869812 5.838501 3.869812 9.342651l0 22.06311c0 4.272461E-4 -3.0517578E-4 7.324219E-4 -6.713867E-4 7.324219E-4l-83.77881 -7.324219E-4l0 0c-4.272461E-4 0 -7.324219E-4 -3.0517578E-4 -7.324219E-4 -6.713867E-4l7.324219E-4 -22.062439l0 0c0 -7.297058 5.9154053 -13.212463 13.212463 -13.212463z" fill-rule="evenodd"/><path stroke="#000000" stroke-width="2.0" stroke-linejoin="round" stroke-linecap="butt" d="m588.3975 564.9816l57.354553 0c3.5042114 0 6.864807 1.3920288 9.342651 3.869812c2.4778442 2.4778442 3.869812 5.838501 3.869812 9.342651l0 22.06311c0 4.272461E-4 -3.0517578E-4 7.324219E-4 -6.713867E-4 7.324219E-4l-83.77881 -7.324219E-4l0 0c-4.272461E-4 0 -7.324219E-4 -3.0517578E-4 -7.324219E-4 -6.713867E-4l7.324219E-4 -22.062439l0 0c0 -7.297058 5.9154053 -13.212463 13.212463 -13.212463z" fill-rule="evenodd"/><path fill="#000000" d="m599.2229 591.4743l0 -13.359375l4.03125 0l2.421875 9.109375l2.390625 -9.109375l4.046875 0l0 13.359375l-2.5 0l0 -10.515625l-2.65625 10.515625l-2.59375 0l-2.640625 -10.515625l0 10.515625l-2.5 0zm15.5720215 0l0 -13.359375l4.328125 0q2.453125 0 3.203125 0.203125q1.140625 0.296875 1.921875 1.3125q0.78125 1.0 0.78125 2.59375q0 1.234375 -0.453125 2.078125q-0.453125 0.828125 -1.140625 1.3125q-0.6875 0.46875 -1.390625 0.625q-0.96875 0.203125 -2.796875 0.203125l-1.765625 0l0 5.03125l-2.6875 0zm2.6875 -11.09375l0 3.78125l1.484375 0q1.59375 0 2.125 -0.203125q0.546875 -0.203125 0.84375 -0.65625q0.3125 -0.453125 0.3125 -1.03125q0 -0.734375 -0.4375 -1.203125q-0.421875 -0.484375 -1.078125 -0.59375q-0.484375 -0.09375 -1.9375 -0.09375l-1.3125 0zm14.2092285 11.09375l0 -2.6875l-5.46875 0l0 -2.234375l5.796875 -8.484375l2.15625 0l0 8.46875l1.65625 0l0 2.25l-1.65625 0l0 2.6875l-2.484375 0zm0 -4.9375l0 -4.5625l-3.078125 4.5625l3.078125 0z" fill-rule="nonzero"/><path fill="#d9d2e9" d="m588.3975 614.06036l57.354553 0c3.5042114 0 6.864807 1.3920288 9.342651 3.869873c2.4778442 2.4777832 3.869812 5.83844 3.869812 9.34259l0 22.06311c0 4.272461E-4 -3.0517578E-4 7.324219E-4 -6.713867E-4 7.324219E-4l-83.77881 -7.324219E-4l0 0c-4.272461E-4 0 -7.324219E-4 -3.0517578E-4 -7.324219E-4 -6.713867E-4l7.324219E-4 -22.062439l0 0c0 -7.297058 5.9154053 -13.212463 13.212463 -13.212463z" fill-rule="evenodd"/><path stroke="#000000" stroke-width="2.0" stroke-linejoin="round" stroke-linecap="butt" d="m588.3975 614.06036l57.354553 0c3.5042114 0 6.864807 1.3920288 9.342651 3.869873c2.4778442 2.4777832 3.869812 5.83844 3.869812 9.34259l0 22.06311c0 4.272461E-4 -3.0517578E-4 7.324219E-4 -6.713867E-4 7.324219E-4l-83.77881 -7.324219E-4l0 0c-4.272461E-4 0 -7.324219E-4 -3.0517578E-4 -7.324219E-4 -6.713867E-4l7.324219E-4 -22.062439l0 0c0 -7.297058 5.9154053 -13.212463 13.212463 -13.212463z" fill-rule="evenodd"/><path fill="#000000" d="m597.155 640.55304l0 -13.359375l4.03125 0l2.421875 9.109375l2.390625 -9.109375l4.046875 0l0 13.359375l-2.5 0l0 -10.515625l-2.65625 10.515625l-2.59375 0l-2.640625 -10.515625l0 10.515625l-2.5 0zm15.0251465 -6.59375q0 -2.046875 0.609375 -3.421875q0.453125 -1.03125 1.234375 -1.828125q0.796875 -0.8125 1.734375 -1.203125q1.25 -0.53125 2.875 -0.53125q2.953125 0 4.71875 1.828125q1.78125 1.828125 1.78125 5.09375q0 3.234375 -1.765625 5.0625q-1.75 1.828125 -4.6875 1.828125q-2.984375 0 -4.75 -1.8125q-1.75 -1.828125 -1.75 -5.015625zm2.78125 -0.09375q0 2.265625 1.046875 3.4375q1.046875 1.171875 2.65625 1.171875q1.609375 0 2.640625 -1.15625q1.046875 -1.171875 1.046875 -3.484375q0 -2.296875 -1.015625 -3.421875q-1.0 -1.140625 -2.671875 -1.140625q-1.671875 0 -2.6875 1.15625q-1.015625 1.140625 -1.015625 3.4375zm15.68335 6.6875l-4.78125 -13.359375l2.9375 0l3.375 9.890625l3.265625 -9.890625l2.859375 0l-4.78125 13.359375l-2.875 0z" fill-rule="nonzero"/><path fill="#d9d2e9" d="m588.3975 663.1391l57.354553 0c3.5042114 0 6.864807 1.3920288 9.342651 3.869873c2.4778442 2.4777832 3.869812 5.83844 3.869812 9.34259l0 22.06311c0 4.272461E-4 -3.0517578E-4 7.324219E-4 -6.713867E-4 7.324219E-4l-83.77881 -7.324219E-4l0 0c-4.272461E-4 0 -7.324219E-4 -3.0517578E-4 -7.324219E-4 -6.713867E-4l7.324219E-4 -22.062439l0 0c0 -7.297058 5.9154053 -13.212463 13.212463 -13.212463z" fill-rule="evenodd"/><path stroke="#000000" stroke-width="2.0" stroke-linejoin="round" stroke-linecap="butt" d="m588.3975 663.1391l57.354553 0c3.5042114 0 6.864807 1.3920288 9.342651 3.869873c2.4778442 2.4777832 3.869812 5.83844 3.869812 9.34259l0 22.06311c0 4.272461E-4 -3.0517578E-4 7.324219E-4 -6.713867E-4 7.324219E-4l-83.77881 -7.324219E-4l0 0c-4.272461E-4 0 -7.324219E-4 -3.0517578E-4 -7.324219E-4 -6.713867E-4l7.324219E-4 -22.062439l0 0c0 -7.297058 5.9154053 -13.212463 13.212463 -13.212463z" fill-rule="evenodd"/><path fill="#000000" d="m615.62384 689.6318l-2.9375 0l-1.171875 -3.03125l-5.328125 0l-1.109375 3.03125l-2.859375 0l5.203125 -13.359375l2.84375 0l5.359375 13.359375zm-4.96875 -5.28125l-1.84375 -4.953125l-1.796875 4.953125l3.640625 0zm8.415649 5.28125l-4.78125 -13.359375l2.9375 0l3.375 9.890625l3.265625 -9.890625l2.859375 0l-4.78125 13.359375l-2.875 0zm8.9592285 0l0 -13.359375l2.6875 0l0 13.359375l-2.6875 0z" fill-rule="nonzero"/><path fill="#e06666" d="m578.7598 251.20473l0 0c0 -19.64743 17.154236 -35.5748 38.315002 -35.5748l0 0c21.160767 0 38.31494 15.927368 38.31494 35.5748l0 0c0 19.647415 -17.154175 35.574814 -38.31494 35.574814l0 0c-21.160767 0 -38.315002 -15.927399 -38.315002 -35.574814zm59.970825 11.074844l0 0c5.5630493 -8.621948 4.0198364 -19.484024 -3.779358 -26.601288c-7.7991333 -7.117264 -19.957947 -8.759247 -29.777039 -4.021225zm-43.311707 -22.149689l0 0c-5.5630493 8.621948 -4.0198364 19.484009 3.779358 26.601288c7.7991333 7.1172485 19.958008 8.759247 29.777039 4.0212097z" fill-rule="evenodd"/><path stroke="#000000" stroke-width="2.0" stroke-linejoin="round" stroke-linecap="butt" d="m578.7598 251.20473l0 0c0 -19.64743 17.154236 -35.5748 38.315002 -35.5748l0 0c21.160767 0 38.31494 15.927368 38.31494 35.5748l0 0c0 19.647415 -17.154175 35.574814 -38.31494 35.574814l0 0c-21.160767 0 -38.315002 -15.927399 -38.315002 -35.574814zm59.970825 11.074844l0 0c5.5630493 -8.621948 4.0198364 -19.484024 -3.779358 -26.601288c-7.7991333 -7.117264 -19.957947 -8.759247 -29.777039 -4.021225zm-43.311707 -22.149689l0 0c-5.5630493 8.621948 -4.0198364 19.484009 3.779358 26.601288c7.7991333 7.1172485 19.958008 8.759247 29.777039 4.0212097z" fill-rule="evenodd"/><path fill="#d9d2e9" d="m63.519684 483.11285l0 0c0 -21.656525 140.63899 -39.212585 314.12598 -39.212585c173.48703 0 314.126 17.55606 314.126 39.212585l-19.606323 0c0 -10.828247 -131.86096 -19.606293 -294.51968 -19.606293c-162.65872 0 -294.51968 8.778046 -294.51968 19.606293z" fill-rule="evenodd"/><path stroke="#000000" stroke-width="3.0" stroke-linejoin="round" stroke-linecap="butt" d="m63.519684 483.11285l0 0c0 -21.656525 140.63899 -39.212585 314.12598 -39.212585c173.48703 0 314.126 17.55606 314.126 39.212585l-19.606323 0c0 -10.828247 -131.86096 -19.606293 -294.51968 -19.606293c-162.65872 0 -294.51968 8.778046 -294.51968 19.606293z" fill-rule="evenodd"/><path fill="#8e7cc3" d="m85.301834 42.682415l562.4961 0l0 66.590546l-562.4961 0z" fill-rule="evenodd"/><path fill="#71639b" d="m647.7979 42.682415l22.196838 -22.19685l0 66.59055l-22.196838 22.196846z" fill-rule="evenodd"/><path fill="#a496cf" d="m85.301834 42.682415l22.196854 -22.19685l562.4961 0l-22.196838 22.19685z" fill-rule="evenodd"/><path fill="#000000" fill-opacity="0.0" d="m85.301834 42.682415l22.196854 -22.19685l562.4961 0l0 66.59055l-22.196838 22.196846l-562.4961 0zm0 0l562.4961 0l22.196838 -22.19685m-22.196838 22.19685l0 66.590546" fill-rule="evenodd"/><path stroke="#000000" stroke-width="3.0" stroke-linejoin="round" stroke-linecap="butt" d="m85.301834 42.682415l22.196854 -22.19685l562.4961 0l0 66.59055l-22.196838 22.196846l-562.4961 0zm0 0l562.4961 0l22.196838 -22.19685m-22.196838 22.19685l0 66.590546" fill-rule="evenodd"/><path fill="#000000" d="m114.25612 85.57768l0 -19.078125l13.078125 0l0 3.21875l-9.234375 0l0 4.515625l7.96875 0l0 3.234375l-7.96875 0l0 8.109375l-3.84375 0zm16.2202 -15.703125l0 -3.375l3.671875 0l0 3.375l-3.671875 0zm0 15.703125l0 -13.828125l3.671875 0l0 13.828125l-3.671875 0zm7.40596 0l0 -19.078125l3.671875 0l0 19.078125l-3.671875 0zm15.421585 -4.40625l3.640625 0.625q-0.703125 2.0 -2.21875 3.046875q-1.515625 1.046875 -3.796875 1.046875q-3.609375 0 -5.328125 -2.359375q-1.375 -1.890625 -1.375 -4.765625q0 -3.4375 1.796875 -5.375q1.796875 -1.953125 4.546875 -1.953125q3.078125 0 4.859375 2.046875q1.78125 2.03125 1.703125 6.234375l-9.15625 0q0.046875 1.625 0.890625 2.53125q0.84375 0.90625 2.109375 0.90625q0.859375 0 1.4375 -0.46875q0.59375 -0.46875 0.890625 -1.515625zm0.203125 -3.6875q-0.03125 -1.59375 -0.8125 -2.421875q-0.78125 -0.828125 -1.90625 -0.828125q-1.203125 0 -1.984375 0.875q-0.78125 0.875 -0.765625 2.375l5.46875 0zm26.246521 1.078125l3.75 1.1875q-0.859375 3.125 -2.859375 4.640625q-2.0 1.515625 -5.078125 1.515625q-3.796875 0 -6.25 -2.59375q-2.4375 -2.609375 -2.4375 -7.109375q0 -4.765625 2.453125 -7.390625q2.46875 -2.640625 6.46875 -2.640625q3.5 0 5.6875 2.0625q1.3125 1.234375 1.953125 3.515625l-3.8125 0.921875q-0.34375 -1.484375 -1.421875 -2.34375q-1.0625 -0.859375 -2.59375 -0.859375q-2.125 0 -3.453125 1.53125q-1.3125 1.515625 -1.3125 4.921875q0 3.609375 1.296875 5.15625q1.296875 1.53125 3.390625 1.53125q1.53125 0 2.640625 -0.96875q1.109375 -0.984375 1.578125 -3.078125zm6.172165 -0.09375q0 -1.8125 0.890625 -3.515625q0.90625 -1.71875 2.546875 -2.609375q1.65625 -0.90625 3.6875 -0.90625q3.140625 0 5.140625 2.046875q2.0 2.03125 2.0 5.140625q0 3.140625 -2.03125 5.203125q-2.015625 2.0625 -5.078125 2.0625q-1.90625 0 -3.640625 -0.859375q-1.71875 -0.859375 -2.625 -2.515625q-0.890625 -1.65625 -0.890625 -4.046875zm3.75 0.203125q0 2.046875 0.96875 3.140625q0.984375 1.09375 2.421875 1.09375q1.421875 0 2.390625 -1.09375q0.984375 -1.09375 0.984375 -3.171875q0 -2.03125 -0.984375 -3.125q-0.96875 -1.09375 -2.390625 -1.09375q-1.4375 0 -2.421875 1.09375q-0.96875 1.09375 -0.96875 3.15625zm25.954575 6.90625l-3.65625 0l0 -7.046875q0 -2.25 -0.234375 -2.90625q-0.234375 -0.65625 -0.765625 -1.015625q-0.515625 -0.375 -1.265625 -0.375q-0.953125 0 -1.703125 0.53125q-0.75 0.515625 -1.03125 1.375q-0.28125 0.859375 -0.28125 3.171875l0 6.265625l-3.65625 0l0 -13.828125l3.390625 0l0 2.03125q1.8125 -2.34375 4.5625 -2.34375q1.203125 0 2.203125 0.4375q1.015625 0.4375 1.515625 1.125q0.515625 0.671875 0.71875 1.53125q0.203125 0.859375 0.203125 2.453125l0 8.59375zm7.5170746 0l-5.578125 -13.828125l3.84375 0l2.609375 7.0625l0.75 2.359375q0.296875 -0.90625 0.375 -1.1875q0.1875 -0.59375 0.390625 -1.171875l2.625 -7.0625l3.765625 0l-5.5 13.828125l-3.28125 0zm19.02806 -4.40625l3.640625 0.625q-0.703125 2.0 -2.21875 3.046875q-1.515625 1.046875 -3.796875 1.046875q-3.609375 0 -5.328125 -2.359375q-1.375 -1.890625 -1.375 -4.765625q0 -3.4375 1.796875 -5.375q1.796875 -1.953125 4.546875 -1.953125q3.078125 0 4.859375 2.046875q1.78125 2.03125 1.703125 6.234375l-9.15625 0q0.046875 1.625 0.890625 2.53125q0.84375 0.90625 2.109375 0.90625q0.859375 0 1.4375 -0.46875q0.59375 -0.46875 0.890625 -1.515625zm0.203125 -3.6875q-0.03125 -1.59375 -0.8125 -2.421875q-0.78125 -0.828125 -1.90625 -0.828125q-1.203125 0 -1.984375 0.875q-0.78125 0.875 -0.765625 2.375l5.46875 0zm10.121811 8.09375l-3.671875 0l0 -13.828125l3.40625 0l0 1.96875q0.875 -1.390625 1.5625 -1.828125q0.703125 -0.453125 1.578125 -0.453125q1.2500153 0 2.4218903 0.703125l-1.140625 3.1875q-0.92189026 -0.609375 -1.7187653 -0.609375q-0.765625 0 -1.296875 0.421875q-0.53125 0.421875 -0.84375 1.53125q-0.296875 1.109375 -0.296875 4.640625l0 4.265625zm5.5766754 -3.9375l3.671875 -0.5625q0.234375 1.0625 0.953125 1.625q0.71875 0.546875 2.0 0.546875q1.421875 0 2.140625 -0.515625q0.46875 -0.375 0.46875 -0.984375q0 -0.421875 -0.25 -0.6875q-0.28125 -0.265625 -1.234375 -0.484375q-4.421875 -0.96875 -5.609375 -1.78125q-1.640625 -1.125 -1.640625 -3.109375q0 -1.796875 1.421875 -3.015625q1.421875 -1.234375 4.40625 -1.234375q2.828125 0 4.203125 0.9375q1.390625 0.921875 1.90625 2.71875l-3.4375 0.640625q-0.234375 -0.796875 -0.859375 -1.21875q-0.609375 -0.4375 -1.75 -0.4375q-1.4375 0 -2.0625 0.390625q-0.421875 0.296875 -0.421875 0.75q0 0.390625 0.359375 0.65625q0.5 0.375 3.421875 1.046875q2.921875 0.65625 4.078125 1.609375q1.140625 0.984375 1.140625 2.71875q0 1.90625 -1.59375 3.28125q-1.578125 1.359375 -4.6875 1.359375q-2.828125 0 -4.484375 -1.140625q-1.640625 -1.15625 -2.140625 -3.109375zm16.106201 -11.765625l0 -3.375l3.671875 0l0 3.375l-3.671875 0zm0 15.703125l0 -13.828125l3.671875 0l0 13.828125l-3.671875 0zm6.562195 -7.109375q0 -1.8125 0.890625 -3.515625q0.90625 -1.71875 2.546875 -2.609375q1.65625 -0.90625 3.6875 -0.90625q3.140625 0 5.140625 2.046875q2.0 2.03125 2.0 5.140625q0 3.140625 -2.03125 5.203125q-2.015625 2.0625 -5.078125 2.0625q-1.90625 0 -3.640625 -0.859375q-1.71875 -0.859375 -2.625 -2.515625q-0.890625 -1.65625 -0.890625 -4.046875zm3.75 0.203125q0 2.046875 0.96875 3.140625q0.984375 1.09375 2.421875 1.09375q1.421875 0 2.390625 -1.09375q0.984375 -1.09375 0.984375 -3.171875q0 -2.03125 -0.984375 -3.125q-0.96875 -1.09375 -2.390625 -1.09375q-1.4375 0 -2.421875 1.09375q-0.96875 1.09375 -0.96875 3.15625zm25.95459 6.90625l-3.65625 0l0 -7.046875q0 -2.25 -0.234375 -2.90625q-0.234375 -0.65625 -0.765625 -1.015625q-0.515625 -0.375 -1.265625 -0.375q-0.953125 0 -1.703125 0.53125q-0.75 0.515625 -1.03125 1.375q-0.28125 0.859375 -0.28125 3.171875l0 6.265625l-3.65625 0l0 -13.828125l3.390625 0l0 2.03125q1.8125 -2.34375 4.5625 -2.34375q1.203125 0 2.203125 0.4375q1.015625 0.4375 1.515625 1.125q0.515625 0.671875 0.71875 1.53125q0.203125 0.859375 0.203125 2.453125l0 8.59375zm27.355316 0l-4.1875 0l-1.65625 -4.328125l-7.640625 0l-1.5625 4.328125l-4.09375 0l7.4375 -19.078125l4.0625 0l7.640625 19.078125zm-7.09375 -7.546875l-2.625 -7.078125l-2.578125 7.078125l5.203125 0zm9.01593 -6.28125l3.40625 0l0 2.03125q0.671875 -1.03125 1.796875 -1.6875q1.125 -0.65625 2.515625 -0.65625q2.40625 0 4.078125 1.890625q1.6875 1.890625 1.6875 5.265625q0 3.453125 -1.703125 5.375q-1.6875 1.921875 -4.09375 1.921875q-1.140625 0 -2.078125 -0.453125q-0.921875 -0.453125 -1.953125 -1.5625l0 6.96875l-3.65625 0l0 -19.09375zm3.609375 6.6875q0 2.328125 0.921875 3.4375q0.9375 1.109375 2.265625 1.109375q1.265625 0 2.109375 -1.015625q0.859375 -1.03125 0.859375 -3.359375q0 -2.171875 -0.875 -3.21875q-0.875 -1.0625 -2.171875 -1.0625q-1.328125 0 -2.21875 1.046875q-0.890625 1.03125 -0.890625 3.0625zm12.673309 -6.6875l3.40625 0l0 2.03125q0.671875 -1.03125 1.796875 -1.6875q1.125 -0.65625 2.515625 -0.65625q2.40625 0 4.078125 1.890625q1.6875 1.890625 1.6875 5.265625q0 3.453125 -1.703125 5.375q-1.6875 1.921875 -4.09375 1.921875q-1.140625 0 -2.078125 -0.453125q-0.921875 -0.453125 -1.953125 -1.5625l0 6.96875l-3.65625 0l0 -19.09375zm3.609375 6.6875q0 2.328125 0.921875 3.4375q0.9375 1.109375 2.265625 1.109375q1.265625 0 2.109375 -1.015625q0.859375 -1.03125 0.859375 -3.359375q0 -2.171875 -0.875 -3.21875q-0.875 -1.0625 -2.171875 -1.0625q-1.328125 0 -2.21875 1.046875q-0.890625 1.03125 -0.890625 3.0625zm12.76709 7.140625l0 -19.078125l3.671875 0l0 19.078125l-3.671875 0zm7.405945 -15.703125l0 -3.375l3.671875 0l0 3.375l-3.671875 0zm0 15.703125l0 -13.828125l3.671875 0l0 13.828125l-3.671875 0zm19.468445 -9.734375l-3.609375 0.65625q-0.1875 -1.09375 -0.828125 -1.640625q-0.640625 -0.546875 -1.671875 -0.546875q-1.359375 0 -2.171875 0.953125q-0.8125 0.9375 -0.8125 3.15625q0 2.453125 0.8125 3.46875q0.828125 1.015625 2.21875 1.015625q1.046875 0 1.703125 -0.59375q0.671875 -0.59375 0.953125 -2.03125l3.578125 0.609375q-0.546875 2.46875 -2.140625 3.734375q-1.59375 1.265625 -4.25 1.265625q-3.03125 0 -4.84375 -1.90625q-1.796875 -1.921875 -1.796875 -5.296875q0 -3.4375 1.796875 -5.34375q1.8125 -1.90625 4.90625 -1.90625q2.515625 0 4.0 1.09375q1.5 1.078125 2.15625 3.3125zm5.496826 0.125l-3.3125 -0.59375q0.5625 -2.0 1.921875 -2.96875q1.375 -0.96875 4.0625 -0.96875q2.453125 0 3.640625 0.578125q1.203125 0.578125 1.6875 1.484375q0.5 0.890625 0.5 3.265625l-0.046875 4.265625q0 1.828125 0.171875 2.703125q0.171875 0.859375 0.65625 1.84375l-3.609375 0q-0.140625 -0.359375 -0.359375 -1.078125q-0.09375 -0.328125 -0.125 -0.4375q-0.9375 0.921875 -2.015625 1.375q-1.0625 0.453125 -2.265625 0.453125q-2.140625 0 -3.375 -1.15625q-1.21875 -1.15625 -1.21875 -2.9375q0 -1.171875 0.546875 -2.078125q0.5625 -0.921875 1.578125 -1.40625q1.015625 -0.484375 2.90625 -0.859375q2.5625 -0.484375 3.5625 -0.890625l0 -0.375q0 -1.046875 -0.53125 -1.5q-0.515625 -0.453125 -1.96875 -0.453125q-0.96875 0 -1.515625 0.390625q-0.546875 0.390625 -0.890625 1.34375zm4.90625 2.96875q-0.703125 0.234375 -2.234375 0.5625q-1.515625 0.328125 -1.984375 0.640625q-0.71875 0.5 -0.71875 1.28125q0 0.765625 0.5625 1.328125q0.578125 0.5625 1.46875 0.5625q0.984375 0 1.890625 -0.65625q0.65625 -0.484375 0.859375 -1.203125q0.15625 -0.46875 0.15625 -1.78125l0 -0.734375zm13.528076 -7.1875l0 2.921875l-2.5 0l0 5.5625q0 1.703125 0.0625 1.984375q0.078125 0.28125 0.328125 0.46875q0.265625 0.171875 0.625 0.171875q0.515625 0 1.46875 -0.359375l0.3125 2.84375q-1.265625 0.546875 -2.890625 0.546875q-0.984375 0 -1.78125 -0.328125q-0.796875 -0.328125 -1.171875 -0.859375q-0.359375 -0.53125 -0.5 -1.421875q-0.125 -0.640625 -0.125 -2.578125l0 -6.03125l-1.671875 0l0 -2.921875l1.671875 0l0 -2.734375l3.671875 -2.140625l0 4.875l2.5 0zm2.5329895 -1.875l0 -3.375l3.671875 0l0 3.375l-3.671875 0zm0 15.703125l0 -13.828125l3.671875 0l0 13.828125l-3.671875 0zm6.5622253 -7.109375q0 -1.8125 0.890625 -3.515625q0.90625 -1.71875 2.546875 -2.609375q1.65625 -0.90625 3.6875 -0.90625q3.140625 0 5.140625 2.046875q2.0 2.03125 2.0 5.140625q0 3.140625 -2.03125 5.203125q-2.015625 2.0625 -5.078125 2.0625q-1.90625 0 -3.640625 -0.859375q-1.71875 -0.859375 -2.625 -2.515625q-0.890625 -1.65625 -0.890625 -4.046875zm3.75 0.203125q0 2.046875 0.96875 3.140625q0.984375 1.09375 2.421875 1.09375q1.421875 0 2.390625 -1.09375q0.984375 -1.09375 0.984375 -3.171875q0 -2.03125 -0.984375 -3.125q-0.96875 -1.09375 -2.390625 -1.09375q-1.4375 0 -2.421875 1.09375q-0.96875 1.09375 -0.96875 3.15625zm25.95459 6.90625l-3.65625 0l0 -7.046875q0 -2.25 -0.234375 -2.90625q-0.234375 -0.65625 -0.765625 -1.015625q-0.515625 -0.375 -1.265625 -0.375q-0.953125 0 -1.703125 0.53125q-0.75 0.515625 -1.03125 1.375q-0.28125 0.859375 -0.28125 3.171875l0 6.265625l-3.65625 0l0 -13.828125l3.390625 0l0 2.03125q1.8125 -2.34375 4.5625 -2.34375q1.203125 0 2.203125 0.4375q1.015625 0.4375 1.515625 1.125q0.515625 0.671875 0.71875 1.53125q0.203125 0.859375 0.203125 2.453125l0 8.59375zm23.34491 -7.015625l3.75 1.1875q-0.859375 3.125 -2.859375 4.640625q-2.0 1.515625 -5.078125 1.515625q-3.796875 0 -6.25 -2.59375q-2.4375 -2.609375 -2.4375 -7.109375q0 -4.765625 2.453125 -7.390625q2.46875 -2.640625 6.46875 -2.640625q3.5 0 5.6875 2.0625q1.3125 1.234375 1.953125 3.515625l-3.8125 0.921875q-0.34375 -1.484375 -1.421875 -2.34375q-1.0625 -0.859375 -2.59375 -0.859375q-2.125 0 -3.453125 1.53125q-1.3125 1.515625 -1.3125 4.921875q0 3.609375 1.296875 5.15625q1.296875 1.53125 3.390625 1.53125q1.53125 0 2.640625 -0.96875q1.109375 -0.984375 1.578125 -3.078125zm9.750305 -2.59375l-3.3125 -0.59375q0.5625 -2.0 1.921875 -2.96875q1.375 -0.96875 4.0625 -0.96875q2.453125 0 3.640625 0.578125q1.203125 0.578125 1.6875 1.484375q0.5 0.890625 0.5 3.265625l-0.046875 4.265625q0 1.828125 0.171875 2.703125q0.171875 0.859375 0.65625 1.84375l-3.609375 0q-0.140625 -0.359375 -0.359375 -1.078125q-0.09375 -0.328125 -0.125 -0.4375q-0.9375 0.921875 -2.015625 1.375q-1.0625 0.453125 -2.265625 0.453125q-2.140625 0 -3.375 -1.15625q-1.21875 -1.15625 -1.21875 -2.9375q0 -1.171875 0.546875 -2.078125q0.5625 -0.921875 1.578125 -1.40625q1.015625 -0.484375 2.90625 -0.859375q2.5625 -0.484375 3.5625 -0.890625l0 -0.375q0 -1.046875 -0.53125 -1.5q-0.515625 -0.453125 -1.96875 -0.453125q-0.96875 0 -1.515625 0.390625q-0.546875 0.390625 -0.890625 1.34375zm4.90625 2.96875q-0.703125 0.234375 -2.234375 0.5625q-1.515625 0.328125 -1.984375 0.640625q-0.71875 0.5 -0.71875 1.28125q0 0.765625 0.5625 1.328125q0.578125 0.5625 1.46875 0.5625q0.984375 0 1.890625 -0.65625q0.65625 -0.484375 0.859375 -1.203125q0.15625 -0.46875 0.15625 -1.78125l0 -0.734375zm7.090576 -7.1875l3.40625 0l0 2.03125q0.671875 -1.03125 1.7968445 -1.6875q1.125 -0.65625 2.515625 -0.65625q2.40625 0 4.078125 1.890625q1.6875 1.890625 1.6875 5.265625q0 3.453125 -1.703125 5.375q-1.6875 1.921875 -4.09375 1.921875q-1.140625 0 -2.078125 -0.453125q-0.9218445 -0.453125 -1.9530945 -1.5625l0 6.96875l-3.65625 0l0 -19.09375zm3.609375 6.6875q0 2.328125 0.921875 3.4375q0.9374695 1.109375 2.2655945 1.109375q1.265625 0 2.109375 -1.015625q0.859375 -1.03125 0.859375 -3.359375q0 -2.171875 -0.875 -3.21875q-0.875 -1.0625 -2.171875 -1.0625q-1.328125 0 -2.2187195 1.046875q-0.890625 1.03125 -0.890625 3.0625zm15.501434 -2.46875l-3.3125 -0.59375q0.5625 -2.0 1.921875 -2.96875q1.375 -0.96875 4.0625 -0.96875q2.453125 0 3.640625 0.578125q1.203125 0.578125 1.6875 1.484375q0.5 0.890625 0.5 3.265625l-0.046875 4.265625q0 1.828125 0.171875 2.703125q0.171875 0.859375 0.65625 1.84375l-3.609375 0q-0.140625 -0.359375 -0.359375 -1.078125q-0.09375 -0.328125 -0.125 -0.4375q-0.9375 0.921875 -2.015625 1.375q-1.0625 0.453125 -2.265625 0.453125q-2.140625 0 -3.375 -1.15625q-1.21875 -1.15625 -1.21875 -2.9375q0 -1.171875 0.546875 -2.078125q0.5625 -0.921875 1.578125 -1.40625q1.015625 -0.484375 2.90625 -0.859375q2.5625 -0.484375 3.5625 -0.890625l0 -0.375q0 -1.046875 -0.53125 -1.5q-0.515625 -0.453125 -1.96875 -0.453125q-0.96875 0 -1.515625 0.390625q-0.546875 0.390625 -0.890625 1.34375zm4.90625 2.96875q-0.703125 0.234375 -2.234375 0.5625q-1.515625 0.328125 -1.984375 0.640625q-0.71875 0.5 -0.71875 1.28125q0 0.765625 0.5625 1.328125q0.578125 0.5625 1.46875 0.5625q0.984375 0 1.890625 -0.65625q0.65625 -0.484375 0.859375 -1.203125q0.15625 -0.46875 0.15625 -1.78125l0 -0.734375zm7.028076 6.640625l0 -19.078125l3.671875 0l0 6.875q1.6875 -1.9375 4.0 -1.9375q2.53125 0 4.171875 1.828125q1.65625 1.828125 1.65625 5.265625q0 3.53125 -1.6875 5.453125q-1.671875 1.90625 -4.09375 1.90625q-1.171875 0 -2.328125 -0.59375q-1.15625 -0.59375 -1.984375 -1.75l0 2.03125l-3.40625 0zm3.640625 -7.203125q0 2.140625 0.671875 3.171875q0.953125 1.453125 2.53125 1.453125q1.203125 0 2.046875 -1.03125q0.859375 -1.03125 0.859375 -3.265625q0 -2.359375 -0.859375 -3.40625q-0.859375 -1.0625 -2.1875 -1.0625q-1.328125 0 -2.203125 1.03125q-0.859375 1.015625 -0.859375 3.109375zm12.79834 -8.5l0 -3.375l3.671875 0l0 3.375l-3.671875 0zm0 15.703125l0 -13.828125l3.671875 0l0 13.828125l-3.671875 0zm7.405945 0l0 -19.078125l3.671875 0l0 19.078125l-3.671875 0zm7.405945 -15.703125l0 -3.375l3.671875 0l0 3.375l-3.671875 0zm0 15.703125l0 -13.828125l3.671875 0l0 13.828125l-3.671875 0zm13.749695 -13.828125l0 2.921875l-2.5 0l0 5.5625q0 1.703125 0.0625 1.984375q0.078125 0.28125 0.328125 0.46875q0.265625 0.171875 0.625 0.171875q0.515625 0 1.46875 -0.359375l0.3125 2.84375q-1.265625 0.546875 -2.890625 0.546875q-0.984375 0 -1.78125 -0.328125q-0.796875 -0.328125 -1.171875 -0.859375q-0.359375 -0.53125 -0.5 -1.421875q-0.125 -0.640625 -0.125 -2.578125l0 -6.03125l-1.671875 0l0 -2.921875l1.671875 0l0 -2.734375l3.671875 -2.140625l0 4.875l2.5 0zm2.53302 -1.875l0 -3.375l3.671875 0l0 3.375l-3.671875 0zm0 15.703125l0 -13.828125l3.671875 0l0 13.828125l-3.671875 0zm15.42157 -4.40625l3.640625 0.625q-0.703125 2.0 -2.21875 3.046875q-1.515625 1.046875 -3.796875 1.046875q-3.609375 0 -5.328125 -2.359375q-1.375 -1.890625 -1.375 -4.765625q0 -3.4375 1.796875 -5.375q1.796875 -1.953125 4.546875 -1.953125q3.078125 0 4.859375 2.046875q1.78125 2.03125 1.703125 6.234375l-9.15625 0q0.046875 1.625 0.890625 2.53125q0.84375 0.90625 2.109375 0.90625q0.859375 0 1.4375 -0.46875q0.59375 -0.46875 0.890625 -1.515625zm0.203125 -3.6875q-0.03125 -1.59375 -0.8125 -2.421875q-0.78125 -0.828125 -1.90625 -0.828125q-1.203125 0 -1.984375 0.875q-0.78125 0.875 -0.765625 2.375l5.46875 0zm5.324951 4.15625l3.671875 -0.5625q0.234375 1.0625 0.953125 1.625q0.71875 0.546875 2.0 0.546875q1.421875 0 2.140625 -0.515625q0.46875 -0.375 0.46875 -0.984375q0 -0.421875 -0.25 -0.6875q-0.28125 -0.265625 -1.234375 -0.484375q-4.421875 -0.96875 -5.609375 -1.78125q-1.640625 -1.125 -1.640625 -3.109375q0 -1.796875 1.421875 -3.015625q1.421875 -1.234375 4.40625 -1.234375q2.828125 0 4.203125 0.9375q1.390625 0.921875 1.90625 2.71875l-3.4375 0.640625q-0.234375 -0.796875 -0.859375 -1.21875q-0.609375 -0.4375 -1.75 -0.4375q-1.4375 0 -2.0625 0.390625q-0.421875 0.296875 -0.421875 0.75q0 0.390625 0.359375 0.65625q0.5 0.375 3.421875 1.046875q2.921875 0.65625 4.078125 1.609375q1.140625 0.984375 1.140625 2.71875q0 1.90625 -1.59375 3.28125q-1.578125 1.359375 -4.6875 1.359375q-2.828125 0 -4.484375 -1.140625q-1.640625 -1.15625 -2.140625 -3.109375z" fill-rule="nonzero"/><path fill="#d9d2e9" d="m114.85958 360.77963l0 0c0 -3.2470703 2.632286 -5.879364 5.8793793 -5.879364l58.25698 0c1.5593109 0 3.0547638 0.6194153 4.1573486 1.7220154c1.1026001 1.1026001 1.7220459 2.598053 1.7220459 4.1573486l0 23.516846c0 3.2470703 -2.6322937 5.879364 -5.8793945 5.879364l-58.25698 0c-3.2470932 0 -5.8793793 -2.6322937 -5.8793793 -5.879364z" fill-rule="evenodd"/><path stroke="#000000" stroke-width="2.0" stroke-linejoin="round" stroke-linecap="butt" d="m114.85958 360.77963l0 0c0 -3.2470703 2.632286 -5.879364 5.8793793 -5.879364l58.25698 0c1.5593109 0 3.0547638 0.6194153 4.1573486 1.7220154c1.1026001 1.1026001 1.7220459 2.598053 1.7220459 4.1573486l0 23.516846c0 3.2470703 -2.6322937 5.879364 -5.8793945 5.879364l-58.25698 0c-3.2470932 0 -5.8793793 -2.6322937 -5.8793793 -5.879364z" fill-rule="evenodd"/><path fill="#000000" d="m130.49817 366.0987l5.34375 0q1.59375 0 2.359375 0.140625q0.78125 0.125 1.390625 0.546875q0.625 0.421875 1.03125 1.125q0.40625 0.6875 0.40625 1.546875q0 0.9375 -0.5 1.734375q-0.5 0.78125 -1.375 1.171875q1.21875 0.359375 1.875 1.21875q0.65625 0.84375 0.65625 2.0q0 0.921875 -0.421875 1.78125q-0.421875 0.859375 -1.15625 1.375q-0.734375 0.515625 -1.796875 0.625q-0.6875 0.078125 -3.265625 0.09375l-4.546875 0l0 -13.359375zm2.703125 2.234375l0 3.078125l1.765625 0q1.578125 0 1.953125 -0.046875q0.703125 -0.078125 1.09375 -0.46875q0.40625 -0.40625 0.40625 -1.046875q0 -0.625 -0.34375 -1.0q-0.34375 -0.390625 -1.015625 -0.484375q-0.40625 -0.03125 -2.3125 -0.03125l-1.546875 0zm0 5.296875l0 3.578125l2.5 0q1.453125 0 1.84375 -0.078125q0.609375 -0.109375 0.984375 -0.53125q0.375 -0.421875 0.375 -1.140625q0 -0.59375 -0.296875 -1.015625q-0.28125 -0.421875 -0.84375 -0.609375q-0.546875 -0.203125 -2.390625 -0.203125l-2.171875 0zm10.738571 5.828125l0 -13.359375l4.03125 0l2.421875 9.109375l2.390625 -9.109375l4.046875 0l0 13.359375l-2.5 0l0 -10.515625l-2.65625 10.515625l-2.59375 0l-2.640625 -10.515625l0 10.515625l-2.5 0zm15.572052 0l0 -13.359375l4.328125 0q2.453125 0 3.203125 0.203125q1.140625 0.296875 1.921875 1.3125q0.78125 1.0 0.78125 2.59375q0 1.234375 -0.453125 2.078125q-0.453125 0.828125 -1.140625 1.3125q-0.6875 0.46875 -1.390625 0.625q-0.96875 0.203125 -2.796875 0.203125l-1.765625 0l0 5.03125l-2.6875 0zm2.6875 -11.09375l0 3.78125l1.484375 0q1.59375 0 2.125 -0.203125q0.546875 -0.203125 0.84375 -0.65625q0.3125 -0.453125 0.3125 -1.03125q0 -0.734375 -0.4375 -1.203125q-0.421875 -0.484375 -1.078125 -0.59375q-0.484375 -0.09375 -1.9375 -0.09375l-1.3125 0z" fill-rule="nonzero"/><path fill="#000000" fill-opacity="0.0" d="m184.87534 372.53806c11.858261 0 23.716522 -23.826782 23.716522 -47.653534" fill-rule="evenodd"/><path stroke="#000000" stroke-width="2.0" stroke-linejoin="round" stroke-linecap="butt" d="m195.32455 366.63776l0.05455017 -0.06161499c0.08404541 -0.09609985 0.1678772 -0.19326782 0.2514801 -0.29144287c0.66874695 -0.78530884 1.3230286 -1.634613 1.9599609 -2.5420837c1.2738342 -1.8149109 2.4781952 -3.8625183 3.5899048 -6.096283c2.2234192 -4.4675293 4.0762787 -9.679626 5.3732758 -15.264038c0.32424927 -1.3960876 0.6137543 -2.8154602 0.8656311 -4.252289c0.06297302 -0.3591919 0.12358093 -0.7194824 0.18179321 -1.08078l0.031295776 -0.203125" fill-rule="evenodd"/><path fill="#000000" stroke="#000000" stroke-width="2.0" stroke-linecap="butt" d="m193.70027 363.7612l-6.2789764 7.3392334l9.527557 -1.5861206z" fill-rule="evenodd"/><path fill="#000000" stroke="#000000" stroke-width="2.0" stroke-linecap="butt" d="m210.92534 337.11023l-2.5672302 -9.311279l-4.0185547 8.78302z" fill-rule="evenodd"/></g></svg>